%TF.GenerationSoftware,KiCad,Pcbnew,(5.1.7-0-10_14)*%
%TF.CreationDate,2020-10-21T09:07:25+08:00*%
%TF.ProjectId,HallowBadges,48616c6c-6f77-4426-9164-6765732e6b69,rev?*%
%TF.SameCoordinates,Original*%
%TF.FileFunction,Legend,Bot*%
%TF.FilePolarity,Positive*%
%FSLAX46Y46*%
G04 Gerber Fmt 4.6, Leading zero omitted, Abs format (unit mm)*
G04 Created by KiCad (PCBNEW (5.1.7-0-10_14)) date 2020-10-21 09:07:25*
%MOMM*%
%LPD*%
G01*
G04 APERTURE LIST*
%ADD10C,0.200000*%
%ADD11C,0.120000*%
%ADD12C,0.150000*%
G04 APERTURE END LIST*
D10*
X141192857Y-59353571D02*
X141192857Y-57853571D01*
X141192857Y-58567857D02*
X140335714Y-58567857D01*
X140335714Y-59353571D02*
X140335714Y-57853571D01*
X138978571Y-59353571D02*
X138978571Y-58567857D01*
X139050000Y-58425000D01*
X139192857Y-58353571D01*
X139478571Y-58353571D01*
X139621428Y-58425000D01*
X138978571Y-59282142D02*
X139121428Y-59353571D01*
X139478571Y-59353571D01*
X139621428Y-59282142D01*
X139692857Y-59139285D01*
X139692857Y-58996428D01*
X139621428Y-58853571D01*
X139478571Y-58782142D01*
X139121428Y-58782142D01*
X138978571Y-58710714D01*
X138050000Y-59353571D02*
X138192857Y-59282142D01*
X138264285Y-59139285D01*
X138264285Y-57853571D01*
X137264285Y-59353571D02*
X137407142Y-59282142D01*
X137478571Y-59139285D01*
X137478571Y-57853571D01*
X136478571Y-59353571D02*
X136621428Y-59282142D01*
X136692857Y-59210714D01*
X136764285Y-59067857D01*
X136764285Y-58639285D01*
X136692857Y-58496428D01*
X136621428Y-58425000D01*
X136478571Y-58353571D01*
X136264285Y-58353571D01*
X136121428Y-58425000D01*
X136050000Y-58496428D01*
X135978571Y-58639285D01*
X135978571Y-59067857D01*
X136050000Y-59210714D01*
X136121428Y-59282142D01*
X136264285Y-59353571D01*
X136478571Y-59353571D01*
X135478571Y-58353571D02*
X135192857Y-59353571D01*
X134907142Y-58639285D01*
X134621428Y-59353571D01*
X134335714Y-58353571D01*
X133264285Y-58567857D02*
X133050000Y-58639285D01*
X132978571Y-58710714D01*
X132907142Y-58853571D01*
X132907142Y-59067857D01*
X132978571Y-59210714D01*
X133050000Y-59282142D01*
X133192857Y-59353571D01*
X133764285Y-59353571D01*
X133764285Y-57853571D01*
X133264285Y-57853571D01*
X133121428Y-57925000D01*
X133050000Y-57996428D01*
X132978571Y-58139285D01*
X132978571Y-58282142D01*
X133050000Y-58425000D01*
X133121428Y-58496428D01*
X133264285Y-58567857D01*
X133764285Y-58567857D01*
X131621428Y-59353571D02*
X131621428Y-58567857D01*
X131692857Y-58425000D01*
X131835714Y-58353571D01*
X132121428Y-58353571D01*
X132264285Y-58425000D01*
X131621428Y-59282142D02*
X131764285Y-59353571D01*
X132121428Y-59353571D01*
X132264285Y-59282142D01*
X132335714Y-59139285D01*
X132335714Y-58996428D01*
X132264285Y-58853571D01*
X132121428Y-58782142D01*
X131764285Y-58782142D01*
X131621428Y-58710714D01*
X130264285Y-59353571D02*
X130264285Y-57853571D01*
X130264285Y-59282142D02*
X130407142Y-59353571D01*
X130692857Y-59353571D01*
X130835714Y-59282142D01*
X130907142Y-59210714D01*
X130978571Y-59067857D01*
X130978571Y-58639285D01*
X130907142Y-58496428D01*
X130835714Y-58425000D01*
X130692857Y-58353571D01*
X130407142Y-58353571D01*
X130264285Y-58425000D01*
X128907142Y-58353571D02*
X128907142Y-59567857D01*
X128978571Y-59710714D01*
X129050000Y-59782142D01*
X129192857Y-59853571D01*
X129407142Y-59853571D01*
X129550000Y-59782142D01*
X128907142Y-59282142D02*
X129050000Y-59353571D01*
X129335714Y-59353571D01*
X129478571Y-59282142D01*
X129550000Y-59210714D01*
X129621428Y-59067857D01*
X129621428Y-58639285D01*
X129550000Y-58496428D01*
X129478571Y-58425000D01*
X129335714Y-58353571D01*
X129050000Y-58353571D01*
X128907142Y-58425000D01*
X127621428Y-59282142D02*
X127764285Y-59353571D01*
X128050000Y-59353571D01*
X128192857Y-59282142D01*
X128264285Y-59139285D01*
X128264285Y-58567857D01*
X128192857Y-58425000D01*
X128050000Y-58353571D01*
X127764285Y-58353571D01*
X127621428Y-58425000D01*
X127550000Y-58567857D01*
X127550000Y-58710714D01*
X128264285Y-58853571D01*
X126978571Y-59282142D02*
X126835714Y-59353571D01*
X126550000Y-59353571D01*
X126407142Y-59282142D01*
X126335714Y-59139285D01*
X126335714Y-59067857D01*
X126407142Y-58925000D01*
X126550000Y-58853571D01*
X126764285Y-58853571D01*
X126907142Y-58782142D01*
X126978571Y-58639285D01*
X126978571Y-58567857D01*
X126907142Y-58425000D01*
X126764285Y-58353571D01*
X126550000Y-58353571D01*
X126407142Y-58425000D01*
X141907142Y-61803571D02*
X141907142Y-60803571D01*
X141907142Y-60946428D02*
X141835714Y-60875000D01*
X141692857Y-60803571D01*
X141478571Y-60803571D01*
X141335714Y-60875000D01*
X141264285Y-61017857D01*
X141264285Y-61803571D01*
X141264285Y-61017857D02*
X141192857Y-60875000D01*
X141050000Y-60803571D01*
X140835714Y-60803571D01*
X140692857Y-60875000D01*
X140621428Y-61017857D01*
X140621428Y-61803571D01*
X139264285Y-61803571D02*
X139264285Y-61017857D01*
X139335714Y-60875000D01*
X139478571Y-60803571D01*
X139764285Y-60803571D01*
X139907142Y-60875000D01*
X139264285Y-61732142D02*
X139407142Y-61803571D01*
X139764285Y-61803571D01*
X139907142Y-61732142D01*
X139978571Y-61589285D01*
X139978571Y-61446428D01*
X139907142Y-61303571D01*
X139764285Y-61232142D01*
X139407142Y-61232142D01*
X139264285Y-61160714D01*
X138550000Y-61803571D02*
X138550000Y-60303571D01*
X138407142Y-61232142D02*
X137978571Y-61803571D01*
X137978571Y-60803571D02*
X138550000Y-61375000D01*
X136764285Y-61732142D02*
X136907142Y-61803571D01*
X137192857Y-61803571D01*
X137335714Y-61732142D01*
X137407142Y-61589285D01*
X137407142Y-61017857D01*
X137335714Y-60875000D01*
X137192857Y-60803571D01*
X136907142Y-60803571D01*
X136764285Y-60875000D01*
X136692857Y-61017857D01*
X136692857Y-61160714D01*
X137407142Y-61303571D01*
X136050000Y-61803571D02*
X136050000Y-60803571D01*
X136050000Y-61089285D02*
X135978571Y-60946428D01*
X135907142Y-60875000D01*
X135764285Y-60803571D01*
X135621428Y-60803571D01*
X135121428Y-61803571D02*
X135121428Y-60803571D01*
X135121428Y-60303571D02*
X135192857Y-60375000D01*
X135121428Y-60446428D01*
X135050000Y-60375000D01*
X135121428Y-60303571D01*
X135121428Y-60446428D01*
X134478571Y-61732142D02*
X134335714Y-61803571D01*
X134050000Y-61803571D01*
X133907142Y-61732142D01*
X133835714Y-61589285D01*
X133835714Y-61517857D01*
X133907142Y-61375000D01*
X134050000Y-61303571D01*
X134264285Y-61303571D01*
X134407142Y-61232142D01*
X134478571Y-61089285D01*
X134478571Y-61017857D01*
X134407142Y-60875000D01*
X134264285Y-60803571D01*
X134050000Y-60803571D01*
X133907142Y-60875000D01*
X133407142Y-60803571D02*
X132835714Y-60803571D01*
X133192857Y-60303571D02*
X133192857Y-61589285D01*
X133121428Y-61732142D01*
X132978571Y-61803571D01*
X132835714Y-61803571D01*
X132335714Y-61803571D02*
X132335714Y-60803571D01*
X132335714Y-60303571D02*
X132407142Y-60375000D01*
X132335714Y-60446428D01*
X132264285Y-60375000D01*
X132335714Y-60303571D01*
X132335714Y-60446428D01*
X130978571Y-61732142D02*
X131121428Y-61803571D01*
X131407142Y-61803571D01*
X131550000Y-61732142D01*
X131621428Y-61660714D01*
X131692857Y-61517857D01*
X131692857Y-61089285D01*
X131621428Y-60946428D01*
X131550000Y-60875000D01*
X131407142Y-60803571D01*
X131121428Y-60803571D01*
X130978571Y-60875000D01*
X130335714Y-61660714D02*
X130264285Y-61732142D01*
X130335714Y-61803571D01*
X130407142Y-61732142D01*
X130335714Y-61660714D01*
X130335714Y-61803571D01*
X128978571Y-61732142D02*
X129121428Y-61803571D01*
X129407142Y-61803571D01*
X129550000Y-61732142D01*
X129621428Y-61660714D01*
X129692857Y-61517857D01*
X129692857Y-61089285D01*
X129621428Y-60946428D01*
X129550000Y-60875000D01*
X129407142Y-60803571D01*
X129121428Y-60803571D01*
X128978571Y-60875000D01*
X128121428Y-61803571D02*
X128264285Y-61732142D01*
X128335714Y-61660714D01*
X128407142Y-61517857D01*
X128407142Y-61089285D01*
X128335714Y-60946428D01*
X128264285Y-60875000D01*
X128121428Y-60803571D01*
X127907142Y-60803571D01*
X127764285Y-60875000D01*
X127692857Y-60946428D01*
X127621428Y-61089285D01*
X127621428Y-61517857D01*
X127692857Y-61660714D01*
X127764285Y-61732142D01*
X127907142Y-61803571D01*
X128121428Y-61803571D01*
X126978571Y-61803571D02*
X126978571Y-60803571D01*
X126978571Y-60946428D02*
X126907142Y-60875000D01*
X126764285Y-60803571D01*
X126550000Y-60803571D01*
X126407142Y-60875000D01*
X126335714Y-61017857D01*
X126335714Y-61803571D01*
X126335714Y-61017857D02*
X126264285Y-60875000D01*
X126121428Y-60803571D01*
X125907142Y-60803571D01*
X125764285Y-60875000D01*
X125692857Y-61017857D01*
X125692857Y-61803571D01*
D11*
%TO.C,BT1*%
X123314540Y-104676220D02*
X130164540Y-99876220D01*
X130164540Y-99876220D02*
X138064540Y-99876220D01*
X138064540Y-99876220D02*
X144864540Y-104676220D01*
X123564540Y-120226220D02*
X130264540Y-120226220D01*
X144664540Y-120226220D02*
X137964540Y-120226220D01*
X123364540Y-113476220D02*
X118564540Y-113476220D01*
X118564540Y-113476220D02*
X118564540Y-107976220D01*
X118564540Y-107976220D02*
X123364540Y-107976220D01*
X144864540Y-107976220D02*
X149664540Y-107976220D01*
X149664540Y-107976220D02*
X149664540Y-113476220D01*
X149664540Y-113476220D02*
X144864540Y-113476220D01*
X130268155Y-120227684D02*
G75*
G03*
X137964540Y-120226220I3846385J9501464D01*
G01*
%TO.C,J1*%
X161837680Y-107375420D02*
X161837680Y-106355420D01*
X156637680Y-107375420D02*
X156637680Y-106355420D01*
X161837680Y-109915420D02*
X161837680Y-108895420D01*
X156637680Y-109915420D02*
X156637680Y-108895420D01*
X161837680Y-104835420D02*
X161837680Y-104265420D01*
X156637680Y-104835420D02*
X156637680Y-104265420D01*
X161837680Y-112005420D02*
X161837680Y-111435420D01*
X156637680Y-112005420D02*
X156637680Y-111435420D01*
X155197680Y-111435420D02*
X156637680Y-111435420D01*
X156637680Y-104265420D02*
X161837680Y-104265420D01*
X156637680Y-112005420D02*
X161837680Y-112005420D01*
%TO.C,Q1*%
X147619600Y-90553000D02*
X147619600Y-92013000D01*
X150779600Y-90553000D02*
X150779600Y-92713000D01*
X150779600Y-90553000D02*
X149849600Y-90553000D01*
X147619600Y-90553000D02*
X148549600Y-90553000D01*
%TO.C,R1*%
X140013956Y-69450280D02*
X140468084Y-69450280D01*
X140013956Y-70920280D02*
X140468084Y-70920280D01*
%TO.C,R2*%
X125185436Y-70892340D02*
X125639564Y-70892340D01*
X125185436Y-69422340D02*
X125639564Y-69422340D01*
%TO.C,R3*%
X158476620Y-94738456D02*
X158476620Y-95192584D01*
X157006620Y-94738456D02*
X157006620Y-95192584D01*
%TO.C,R4*%
X153740116Y-93030980D02*
X154194244Y-93030980D01*
X153740116Y-91560980D02*
X154194244Y-91560980D01*
%TO.C,U1*%
X151505920Y-100426200D02*
X148055920Y-100426200D01*
X151505920Y-100426200D02*
X153455920Y-100426200D01*
X151505920Y-95306200D02*
X149555920Y-95306200D01*
X151505920Y-95306200D02*
X153455920Y-95306200D01*
%TO.C,BT1*%
D12*
X126383634Y-118798031D02*
X126240777Y-118845650D01*
X126193158Y-118893269D01*
X126145539Y-118988507D01*
X126145539Y-119131364D01*
X126193158Y-119226602D01*
X126240777Y-119274221D01*
X126336015Y-119321840D01*
X126716967Y-119321840D01*
X126716967Y-118321840D01*
X126383634Y-118321840D01*
X126288396Y-118369460D01*
X126240777Y-118417079D01*
X126193158Y-118512317D01*
X126193158Y-118607555D01*
X126240777Y-118702793D01*
X126288396Y-118750412D01*
X126383634Y-118798031D01*
X126716967Y-118798031D01*
X125859824Y-118321840D02*
X125288396Y-118321840D01*
X125574110Y-119321840D02*
X125574110Y-118321840D01*
X124431253Y-119321840D02*
X125002681Y-119321840D01*
X124716967Y-119321840D02*
X124716967Y-118321840D01*
X124812205Y-118464698D01*
X124907443Y-118559936D01*
X125002681Y-118607555D01*
%TO.C,J1*%
X159571013Y-112457800D02*
X159571013Y-113172086D01*
X159618632Y-113314943D01*
X159713870Y-113410181D01*
X159856727Y-113457800D01*
X159951965Y-113457800D01*
X158571013Y-113457800D02*
X159142441Y-113457800D01*
X158856727Y-113457800D02*
X158856727Y-112457800D01*
X158951965Y-112600658D01*
X159047203Y-112695896D01*
X159142441Y-112743515D01*
%TO.C,Q1*%
X150958538Y-90209619D02*
X151053776Y-90162000D01*
X151149014Y-90066761D01*
X151291871Y-89923904D01*
X151387109Y-89876285D01*
X151482347Y-89876285D01*
X151434728Y-90114380D02*
X151529966Y-90066761D01*
X151625204Y-89971523D01*
X151672823Y-89781047D01*
X151672823Y-89447714D01*
X151625204Y-89257238D01*
X151529966Y-89162000D01*
X151434728Y-89114380D01*
X151244252Y-89114380D01*
X151149014Y-89162000D01*
X151053776Y-89257238D01*
X151006157Y-89447714D01*
X151006157Y-89781047D01*
X151053776Y-89971523D01*
X151149014Y-90066761D01*
X151244252Y-90114380D01*
X151434728Y-90114380D01*
X150053776Y-90114380D02*
X150625204Y-90114380D01*
X150339490Y-90114380D02*
X150339490Y-89114380D01*
X150434728Y-89257238D01*
X150529966Y-89352476D01*
X150625204Y-89400095D01*
%TO.C,R1*%
X140407686Y-72287660D02*
X140741020Y-71811470D01*
X140979115Y-72287660D02*
X140979115Y-71287660D01*
X140598162Y-71287660D01*
X140502924Y-71335280D01*
X140455305Y-71382899D01*
X140407686Y-71478137D01*
X140407686Y-71620994D01*
X140455305Y-71716232D01*
X140502924Y-71763851D01*
X140598162Y-71811470D01*
X140979115Y-71811470D01*
X139455305Y-72287660D02*
X140026734Y-72287660D01*
X139741020Y-72287660D02*
X139741020Y-71287660D01*
X139836258Y-71430518D01*
X139931496Y-71525756D01*
X140026734Y-71573375D01*
%TO.C,R2*%
X125579166Y-72259720D02*
X125912500Y-71783530D01*
X126150595Y-72259720D02*
X126150595Y-71259720D01*
X125769642Y-71259720D01*
X125674404Y-71307340D01*
X125626785Y-71354959D01*
X125579166Y-71450197D01*
X125579166Y-71593054D01*
X125626785Y-71688292D01*
X125674404Y-71735911D01*
X125769642Y-71783530D01*
X126150595Y-71783530D01*
X125198214Y-71354959D02*
X125150595Y-71307340D01*
X125055357Y-71259720D01*
X124817261Y-71259720D01*
X124722023Y-71307340D01*
X124674404Y-71354959D01*
X124626785Y-71450197D01*
X124626785Y-71545435D01*
X124674404Y-71688292D01*
X125245833Y-72259720D01*
X124626785Y-72259720D01*
%TO.C,R3*%
X159845000Y-94798853D02*
X159368810Y-94465520D01*
X159845000Y-94227424D02*
X158845000Y-94227424D01*
X158845000Y-94608377D01*
X158892620Y-94703615D01*
X158940239Y-94751234D01*
X159035477Y-94798853D01*
X159178334Y-94798853D01*
X159273572Y-94751234D01*
X159321191Y-94703615D01*
X159368810Y-94608377D01*
X159368810Y-94227424D01*
X158845000Y-95132186D02*
X158845000Y-95751234D01*
X159225953Y-95417900D01*
X159225953Y-95560758D01*
X159273572Y-95655996D01*
X159321191Y-95703615D01*
X159416429Y-95751234D01*
X159654524Y-95751234D01*
X159749762Y-95703615D01*
X159797381Y-95655996D01*
X159845000Y-95560758D01*
X159845000Y-95275043D01*
X159797381Y-95179805D01*
X159749762Y-95132186D01*
%TO.C,R4*%
X154171946Y-91173560D02*
X154505280Y-90697370D01*
X154743375Y-91173560D02*
X154743375Y-90173560D01*
X154362422Y-90173560D01*
X154267184Y-90221180D01*
X154219565Y-90268799D01*
X154171946Y-90364037D01*
X154171946Y-90506894D01*
X154219565Y-90602132D01*
X154267184Y-90649751D01*
X154362422Y-90697370D01*
X154743375Y-90697370D01*
X153314803Y-90506894D02*
X153314803Y-91173560D01*
X153552899Y-90125941D02*
X153790994Y-90840227D01*
X153171946Y-90840227D01*
%TO.C,U1*%
X149816724Y-100938080D02*
X149816724Y-101747604D01*
X149769105Y-101842842D01*
X149721486Y-101890461D01*
X149626248Y-101938080D01*
X149435772Y-101938080D01*
X149340534Y-101890461D01*
X149292915Y-101842842D01*
X149245296Y-101747604D01*
X149245296Y-100938080D01*
X148245296Y-101938080D02*
X148816724Y-101938080D01*
X148531010Y-101938080D02*
X148531010Y-100938080D01*
X148626248Y-101080938D01*
X148721486Y-101176176D01*
X148816724Y-101223795D01*
%TD*%
M02*
