%TF.GenerationSoftware,KiCad,Pcbnew,(5.1.7-0-10_14)*%
%TF.CreationDate,2020-10-21T09:07:25+08:00*%
%TF.ProjectId,HallowBadges,48616c6c-6f77-4426-9164-6765732e6b69,rev?*%
%TF.SameCoordinates,Original*%
%TF.FileFunction,Legend,Top*%
%TF.FilePolarity,Positive*%
%FSLAX46Y46*%
G04 Gerber Fmt 4.6, Leading zero omitted, Abs format (unit mm)*
G04 Created by KiCad (PCBNEW (5.1.7-0-10_14)) date 2020-10-21 09:07:25*
%MOMM*%
%LPD*%
G01*
G04 APERTURE LIST*
%ADD10C,0.010000*%
G04 APERTURE END LIST*
D10*
%TO.C,Ref\u002A\u002A*%
G36*
X133849722Y-83045151D02*
G01*
X134015857Y-83053472D01*
X134064933Y-83057402D01*
X134653899Y-83127815D01*
X135224494Y-83231480D01*
X135775154Y-83367713D01*
X136304315Y-83535827D01*
X136810415Y-83735137D01*
X137291889Y-83964958D01*
X137747175Y-84224604D01*
X138174708Y-84513390D01*
X138572927Y-84830629D01*
X138940267Y-85175637D01*
X138973560Y-85209893D01*
X139307110Y-85583408D01*
X139608124Y-85978711D01*
X139877051Y-86396888D01*
X140114340Y-86839026D01*
X140320442Y-87306212D01*
X140495805Y-87799530D01*
X140640878Y-88320069D01*
X140756110Y-88868913D01*
X140841952Y-89447151D01*
X140880672Y-89821597D01*
X140891674Y-89984873D01*
X140899540Y-90179818D01*
X140904316Y-90397133D01*
X140906050Y-90627519D01*
X140904788Y-90861677D01*
X140900577Y-91090309D01*
X140893465Y-91304115D01*
X140883498Y-91493796D01*
X140871451Y-91642965D01*
X140796841Y-92214687D01*
X140691113Y-92758987D01*
X140553621Y-93277833D01*
X140383717Y-93773192D01*
X140180754Y-94247030D01*
X139944085Y-94701314D01*
X139770579Y-94989072D01*
X139516513Y-95355421D01*
X139226234Y-95715516D01*
X138905861Y-96063134D01*
X138561514Y-96392052D01*
X138199312Y-96696049D01*
X137825375Y-96968900D01*
X137819977Y-96972542D01*
X137363710Y-97257313D01*
X136877657Y-97517708D01*
X136368531Y-97750789D01*
X135843051Y-97953620D01*
X135307931Y-98123264D01*
X135007768Y-98202378D01*
X134717452Y-98268430D01*
X134454280Y-98317116D01*
X134207314Y-98349554D01*
X133965614Y-98366865D01*
X133718241Y-98370169D01*
X133459644Y-98360890D01*
X132929192Y-98314171D01*
X132404271Y-98234469D01*
X131889402Y-98123132D01*
X131389102Y-97981511D01*
X130907892Y-97810954D01*
X130450291Y-97612812D01*
X130020818Y-97388435D01*
X129838174Y-97279412D01*
X129414923Y-96992059D01*
X129022815Y-96676078D01*
X128661948Y-96331625D01*
X128332422Y-95958855D01*
X128034336Y-95557925D01*
X127767790Y-95128990D01*
X127532883Y-94672206D01*
X127329713Y-94187727D01*
X127158382Y-93675710D01*
X127018987Y-93136310D01*
X126940480Y-92742597D01*
X126861619Y-92203363D01*
X126810180Y-91640342D01*
X126786212Y-91062042D01*
X126789763Y-90476969D01*
X126820882Y-89893628D01*
X126879617Y-89320526D01*
X126919365Y-89040419D01*
X127022108Y-88492388D01*
X127156462Y-87961727D01*
X127321290Y-87451395D01*
X127515459Y-86964355D01*
X127737831Y-86503567D01*
X127987272Y-86071991D01*
X128152942Y-85823340D01*
X128324549Y-85594404D01*
X128521610Y-85357372D01*
X128735488Y-85121366D01*
X128957550Y-84895506D01*
X129179163Y-84688915D01*
X129391692Y-84510713D01*
X129406227Y-84499366D01*
X129839545Y-84189637D01*
X130296936Y-83914728D01*
X130778402Y-83674637D01*
X131283944Y-83469364D01*
X131813566Y-83298908D01*
X132367269Y-83163267D01*
X132771727Y-83088625D01*
X132907903Y-83071544D01*
X133075649Y-83058055D01*
X133264335Y-83048415D01*
X133463330Y-83042879D01*
X133662003Y-83041706D01*
X133849722Y-83045151D01*
G37*
X133849722Y-83045151D02*
X134015857Y-83053472D01*
X134064933Y-83057402D01*
X134653899Y-83127815D01*
X135224494Y-83231480D01*
X135775154Y-83367713D01*
X136304315Y-83535827D01*
X136810415Y-83735137D01*
X137291889Y-83964958D01*
X137747175Y-84224604D01*
X138174708Y-84513390D01*
X138572927Y-84830629D01*
X138940267Y-85175637D01*
X138973560Y-85209893D01*
X139307110Y-85583408D01*
X139608124Y-85978711D01*
X139877051Y-86396888D01*
X140114340Y-86839026D01*
X140320442Y-87306212D01*
X140495805Y-87799530D01*
X140640878Y-88320069D01*
X140756110Y-88868913D01*
X140841952Y-89447151D01*
X140880672Y-89821597D01*
X140891674Y-89984873D01*
X140899540Y-90179818D01*
X140904316Y-90397133D01*
X140906050Y-90627519D01*
X140904788Y-90861677D01*
X140900577Y-91090309D01*
X140893465Y-91304115D01*
X140883498Y-91493796D01*
X140871451Y-91642965D01*
X140796841Y-92214687D01*
X140691113Y-92758987D01*
X140553621Y-93277833D01*
X140383717Y-93773192D01*
X140180754Y-94247030D01*
X139944085Y-94701314D01*
X139770579Y-94989072D01*
X139516513Y-95355421D01*
X139226234Y-95715516D01*
X138905861Y-96063134D01*
X138561514Y-96392052D01*
X138199312Y-96696049D01*
X137825375Y-96968900D01*
X137819977Y-96972542D01*
X137363710Y-97257313D01*
X136877657Y-97517708D01*
X136368531Y-97750789D01*
X135843051Y-97953620D01*
X135307931Y-98123264D01*
X135007768Y-98202378D01*
X134717452Y-98268430D01*
X134454280Y-98317116D01*
X134207314Y-98349554D01*
X133965614Y-98366865D01*
X133718241Y-98370169D01*
X133459644Y-98360890D01*
X132929192Y-98314171D01*
X132404271Y-98234469D01*
X131889402Y-98123132D01*
X131389102Y-97981511D01*
X130907892Y-97810954D01*
X130450291Y-97612812D01*
X130020818Y-97388435D01*
X129838174Y-97279412D01*
X129414923Y-96992059D01*
X129022815Y-96676078D01*
X128661948Y-96331625D01*
X128332422Y-95958855D01*
X128034336Y-95557925D01*
X127767790Y-95128990D01*
X127532883Y-94672206D01*
X127329713Y-94187727D01*
X127158382Y-93675710D01*
X127018987Y-93136310D01*
X126940480Y-92742597D01*
X126861619Y-92203363D01*
X126810180Y-91640342D01*
X126786212Y-91062042D01*
X126789763Y-90476969D01*
X126820882Y-89893628D01*
X126879617Y-89320526D01*
X126919365Y-89040419D01*
X127022108Y-88492388D01*
X127156462Y-87961727D01*
X127321290Y-87451395D01*
X127515459Y-86964355D01*
X127737831Y-86503567D01*
X127987272Y-86071991D01*
X128152942Y-85823340D01*
X128324549Y-85594404D01*
X128521610Y-85357372D01*
X128735488Y-85121366D01*
X128957550Y-84895506D01*
X129179163Y-84688915D01*
X129391692Y-84510713D01*
X129406227Y-84499366D01*
X129839545Y-84189637D01*
X130296936Y-83914728D01*
X130778402Y-83674637D01*
X131283944Y-83469364D01*
X131813566Y-83298908D01*
X132367269Y-83163267D01*
X132771727Y-83088625D01*
X132907903Y-83071544D01*
X133075649Y-83058055D01*
X133264335Y-83048415D01*
X133463330Y-83042879D01*
X133662003Y-83041706D01*
X133849722Y-83045151D01*
G36*
X126367419Y-63165275D02*
G01*
X126754696Y-63202308D01*
X127076229Y-63260479D01*
X127449823Y-63364089D01*
X127802697Y-63504371D01*
X128134549Y-63680912D01*
X128445074Y-63893297D01*
X128733968Y-64141114D01*
X129000927Y-64423950D01*
X129245647Y-64741389D01*
X129467825Y-65093020D01*
X129667156Y-65478427D01*
X129843336Y-65897199D01*
X129996062Y-66348920D01*
X130125028Y-66833179D01*
X130229932Y-67349561D01*
X130271423Y-67607180D01*
X130292385Y-67751253D01*
X130310139Y-67881149D01*
X130324951Y-68002027D01*
X130337083Y-68119041D01*
X130346798Y-68237350D01*
X130354361Y-68362109D01*
X130360033Y-68498476D01*
X130364080Y-68651606D01*
X130366764Y-68826657D01*
X130368348Y-69028785D01*
X130369096Y-69263147D01*
X130369272Y-69522764D01*
X130368929Y-69809194D01*
X130367693Y-70058684D01*
X130365222Y-70276622D01*
X130361175Y-70468399D01*
X130355210Y-70639402D01*
X130346986Y-70795022D01*
X130336160Y-70940647D01*
X130322392Y-71081667D01*
X130305340Y-71223471D01*
X130284662Y-71371449D01*
X130260016Y-71530988D01*
X130231061Y-71707479D01*
X130230628Y-71710072D01*
X130134245Y-72205626D01*
X130016459Y-72668869D01*
X129877661Y-73099218D01*
X129718247Y-73496087D01*
X129538608Y-73858891D01*
X129339138Y-74187046D01*
X129120230Y-74479968D01*
X128882277Y-74737070D01*
X128625673Y-74957769D01*
X128350811Y-75141480D01*
X128058084Y-75287617D01*
X127753378Y-75394063D01*
X127501494Y-75450149D01*
X127225629Y-75485888D01*
X126939258Y-75500663D01*
X126655853Y-75493860D01*
X126388887Y-75464862D01*
X126349359Y-75458255D01*
X126003544Y-75376726D01*
X125669516Y-75255717D01*
X125346396Y-75094758D01*
X125033303Y-74893377D01*
X124729357Y-74651105D01*
X124575036Y-74509200D01*
X124342497Y-74272623D01*
X124127260Y-74025879D01*
X123925268Y-73763166D01*
X123732459Y-73478680D01*
X123544775Y-73166616D01*
X123358155Y-72821173D01*
X123265521Y-72637257D01*
X123131104Y-72351174D01*
X122999074Y-72044248D01*
X122871199Y-71722157D01*
X122749250Y-71390582D01*
X122634995Y-71055201D01*
X122530203Y-70721692D01*
X122436645Y-70395736D01*
X122356089Y-70083010D01*
X122290305Y-69789194D01*
X122241062Y-69519967D01*
X122210130Y-69281008D01*
X122206316Y-69237586D01*
X122199689Y-69104667D01*
X122197709Y-68938301D01*
X122200049Y-68747085D01*
X122206381Y-68539610D01*
X122216378Y-68324472D01*
X122229713Y-68110265D01*
X122246060Y-67905583D01*
X122263606Y-67731940D01*
X122338114Y-67196501D01*
X122436115Y-66691761D01*
X122557256Y-66218311D01*
X122701180Y-65776744D01*
X122867532Y-65367652D01*
X123055957Y-64991627D01*
X123266098Y-64649263D01*
X123497602Y-64341150D01*
X123750111Y-64067882D01*
X124023271Y-63830050D01*
X124316727Y-63628247D01*
X124630122Y-63463066D01*
X124887144Y-63360389D01*
X125234183Y-63260704D01*
X125600810Y-63194763D01*
X125980672Y-63162857D01*
X126367419Y-63165275D01*
G37*
X126367419Y-63165275D02*
X126754696Y-63202308D01*
X127076229Y-63260479D01*
X127449823Y-63364089D01*
X127802697Y-63504371D01*
X128134549Y-63680912D01*
X128445074Y-63893297D01*
X128733968Y-64141114D01*
X129000927Y-64423950D01*
X129245647Y-64741389D01*
X129467825Y-65093020D01*
X129667156Y-65478427D01*
X129843336Y-65897199D01*
X129996062Y-66348920D01*
X130125028Y-66833179D01*
X130229932Y-67349561D01*
X130271423Y-67607180D01*
X130292385Y-67751253D01*
X130310139Y-67881149D01*
X130324951Y-68002027D01*
X130337083Y-68119041D01*
X130346798Y-68237350D01*
X130354361Y-68362109D01*
X130360033Y-68498476D01*
X130364080Y-68651606D01*
X130366764Y-68826657D01*
X130368348Y-69028785D01*
X130369096Y-69263147D01*
X130369272Y-69522764D01*
X130368929Y-69809194D01*
X130367693Y-70058684D01*
X130365222Y-70276622D01*
X130361175Y-70468399D01*
X130355210Y-70639402D01*
X130346986Y-70795022D01*
X130336160Y-70940647D01*
X130322392Y-71081667D01*
X130305340Y-71223471D01*
X130284662Y-71371449D01*
X130260016Y-71530988D01*
X130231061Y-71707479D01*
X130230628Y-71710072D01*
X130134245Y-72205626D01*
X130016459Y-72668869D01*
X129877661Y-73099218D01*
X129718247Y-73496087D01*
X129538608Y-73858891D01*
X129339138Y-74187046D01*
X129120230Y-74479968D01*
X128882277Y-74737070D01*
X128625673Y-74957769D01*
X128350811Y-75141480D01*
X128058084Y-75287617D01*
X127753378Y-75394063D01*
X127501494Y-75450149D01*
X127225629Y-75485888D01*
X126939258Y-75500663D01*
X126655853Y-75493860D01*
X126388887Y-75464862D01*
X126349359Y-75458255D01*
X126003544Y-75376726D01*
X125669516Y-75255717D01*
X125346396Y-75094758D01*
X125033303Y-74893377D01*
X124729357Y-74651105D01*
X124575036Y-74509200D01*
X124342497Y-74272623D01*
X124127260Y-74025879D01*
X123925268Y-73763166D01*
X123732459Y-73478680D01*
X123544775Y-73166616D01*
X123358155Y-72821173D01*
X123265521Y-72637257D01*
X123131104Y-72351174D01*
X122999074Y-72044248D01*
X122871199Y-71722157D01*
X122749250Y-71390582D01*
X122634995Y-71055201D01*
X122530203Y-70721692D01*
X122436645Y-70395736D01*
X122356089Y-70083010D01*
X122290305Y-69789194D01*
X122241062Y-69519967D01*
X122210130Y-69281008D01*
X122206316Y-69237586D01*
X122199689Y-69104667D01*
X122197709Y-68938301D01*
X122200049Y-68747085D01*
X122206381Y-68539610D01*
X122216378Y-68324472D01*
X122229713Y-68110265D01*
X122246060Y-67905583D01*
X122263606Y-67731940D01*
X122338114Y-67196501D01*
X122436115Y-66691761D01*
X122557256Y-66218311D01*
X122701180Y-65776744D01*
X122867532Y-65367652D01*
X123055957Y-64991627D01*
X123266098Y-64649263D01*
X123497602Y-64341150D01*
X123750111Y-64067882D01*
X124023271Y-63830050D01*
X124316727Y-63628247D01*
X124630122Y-63463066D01*
X124887144Y-63360389D01*
X125234183Y-63260704D01*
X125600810Y-63194763D01*
X125980672Y-63162857D01*
X126367419Y-63165275D01*
G36*
X140772727Y-63063170D02*
G01*
X141186970Y-63096433D01*
X141577437Y-63164427D01*
X141945139Y-63267568D01*
X142291086Y-63406270D01*
X142616289Y-63580947D01*
X142921759Y-63792013D01*
X143208505Y-64039882D01*
X143246949Y-64077284D01*
X143511738Y-64365779D01*
X143752853Y-64685652D01*
X143970531Y-65037501D01*
X144165009Y-65421923D01*
X144336523Y-65839514D01*
X144485311Y-66290871D01*
X144611609Y-66776591D01*
X144715653Y-67297271D01*
X144797682Y-67853509D01*
X144819537Y-68041097D01*
X144826973Y-68128958D01*
X144833183Y-68246432D01*
X144838208Y-68395567D01*
X144842090Y-68578409D01*
X144844870Y-68797004D01*
X144846589Y-69053400D01*
X144847289Y-69349642D01*
X144847310Y-69416930D01*
X144846981Y-69703201D01*
X144845763Y-69952555D01*
X144843310Y-70170406D01*
X144839277Y-70362166D01*
X144833316Y-70533249D01*
X144825084Y-70689068D01*
X144814233Y-70835036D01*
X144800417Y-70976567D01*
X144783291Y-71119072D01*
X144762509Y-71267967D01*
X144737725Y-71428663D01*
X144708593Y-71606574D01*
X144706641Y-71618264D01*
X144610019Y-72115291D01*
X144491968Y-72579416D01*
X144352827Y-73010122D01*
X144192932Y-73406893D01*
X144012622Y-73769216D01*
X143812234Y-74096573D01*
X143592106Y-74388449D01*
X143352575Y-74644330D01*
X143093979Y-74863699D01*
X142816656Y-75046042D01*
X142520944Y-75190842D01*
X142317894Y-75264947D01*
X142054528Y-75333455D01*
X141769101Y-75380079D01*
X141476907Y-75402851D01*
X141248977Y-75402588D01*
X140889359Y-75367523D01*
X140539155Y-75291476D01*
X140198828Y-75174844D01*
X139868842Y-75018022D01*
X139549663Y-74821405D01*
X139241754Y-74585389D01*
X138945579Y-74310370D01*
X138661603Y-73996742D01*
X138390289Y-73644903D01*
X138132103Y-73255246D01*
X137887507Y-72828168D01*
X137656967Y-72364063D01*
X137640245Y-72327751D01*
X137513381Y-72038226D01*
X137389360Y-71731070D01*
X137269884Y-71411939D01*
X137156654Y-71086490D01*
X137051371Y-70760377D01*
X136955737Y-70439256D01*
X136871452Y-70128785D01*
X136800219Y-69834617D01*
X136743738Y-69562411D01*
X136703710Y-69317820D01*
X136685260Y-69152919D01*
X136674130Y-68935489D01*
X136673414Y-68684791D01*
X136682455Y-68408417D01*
X136700594Y-68113958D01*
X136727176Y-67809005D01*
X136761541Y-67501151D01*
X136803033Y-67197987D01*
X136850993Y-66907105D01*
X136902283Y-66647506D01*
X137022670Y-66162010D01*
X137166066Y-65710770D01*
X137332198Y-65294040D01*
X137520792Y-64912071D01*
X137731577Y-64565117D01*
X137964277Y-64253430D01*
X138218620Y-63977265D01*
X138494334Y-63736873D01*
X138791144Y-63532509D01*
X139108778Y-63364424D01*
X139446962Y-63232872D01*
X139805423Y-63138106D01*
X140183888Y-63080379D01*
X140582084Y-63059944D01*
X140772727Y-63063170D01*
G37*
X140772727Y-63063170D02*
X141186970Y-63096433D01*
X141577437Y-63164427D01*
X141945139Y-63267568D01*
X142291086Y-63406270D01*
X142616289Y-63580947D01*
X142921759Y-63792013D01*
X143208505Y-64039882D01*
X143246949Y-64077284D01*
X143511738Y-64365779D01*
X143752853Y-64685652D01*
X143970531Y-65037501D01*
X144165009Y-65421923D01*
X144336523Y-65839514D01*
X144485311Y-66290871D01*
X144611609Y-66776591D01*
X144715653Y-67297271D01*
X144797682Y-67853509D01*
X144819537Y-68041097D01*
X144826973Y-68128958D01*
X144833183Y-68246432D01*
X144838208Y-68395567D01*
X144842090Y-68578409D01*
X144844870Y-68797004D01*
X144846589Y-69053400D01*
X144847289Y-69349642D01*
X144847310Y-69416930D01*
X144846981Y-69703201D01*
X144845763Y-69952555D01*
X144843310Y-70170406D01*
X144839277Y-70362166D01*
X144833316Y-70533249D01*
X144825084Y-70689068D01*
X144814233Y-70835036D01*
X144800417Y-70976567D01*
X144783291Y-71119072D01*
X144762509Y-71267967D01*
X144737725Y-71428663D01*
X144708593Y-71606574D01*
X144706641Y-71618264D01*
X144610019Y-72115291D01*
X144491968Y-72579416D01*
X144352827Y-73010122D01*
X144192932Y-73406893D01*
X144012622Y-73769216D01*
X143812234Y-74096573D01*
X143592106Y-74388449D01*
X143352575Y-74644330D01*
X143093979Y-74863699D01*
X142816656Y-75046042D01*
X142520944Y-75190842D01*
X142317894Y-75264947D01*
X142054528Y-75333455D01*
X141769101Y-75380079D01*
X141476907Y-75402851D01*
X141248977Y-75402588D01*
X140889359Y-75367523D01*
X140539155Y-75291476D01*
X140198828Y-75174844D01*
X139868842Y-75018022D01*
X139549663Y-74821405D01*
X139241754Y-74585389D01*
X138945579Y-74310370D01*
X138661603Y-73996742D01*
X138390289Y-73644903D01*
X138132103Y-73255246D01*
X137887507Y-72828168D01*
X137656967Y-72364063D01*
X137640245Y-72327751D01*
X137513381Y-72038226D01*
X137389360Y-71731070D01*
X137269884Y-71411939D01*
X137156654Y-71086490D01*
X137051371Y-70760377D01*
X136955737Y-70439256D01*
X136871452Y-70128785D01*
X136800219Y-69834617D01*
X136743738Y-69562411D01*
X136703710Y-69317820D01*
X136685260Y-69152919D01*
X136674130Y-68935489D01*
X136673414Y-68684791D01*
X136682455Y-68408417D01*
X136700594Y-68113958D01*
X136727176Y-67809005D01*
X136761541Y-67501151D01*
X136803033Y-67197987D01*
X136850993Y-66907105D01*
X136902283Y-66647506D01*
X137022670Y-66162010D01*
X137166066Y-65710770D01*
X137332198Y-65294040D01*
X137520792Y-64912071D01*
X137731577Y-64565117D01*
X137964277Y-64253430D01*
X138218620Y-63977265D01*
X138494334Y-63736873D01*
X138791144Y-63532509D01*
X139108778Y-63364424D01*
X139446962Y-63232872D01*
X139805423Y-63138106D01*
X140183888Y-63080379D01*
X140582084Y-63059944D01*
X140772727Y-63063170D01*
%TD*%
M02*
