%TF.GenerationSoftware,KiCad,Pcbnew,(5.1.7-0-10_14)*%
%TF.CreationDate,2020-10-21T09:07:25+08:00*%
%TF.ProjectId,HallowBadges,48616c6c-6f77-4426-9164-6765732e6b69,rev?*%
%TF.SameCoordinates,Original*%
%TF.FileFunction,Paste,Bot*%
%TF.FilePolarity,Positive*%
%FSLAX46Y46*%
G04 Gerber Fmt 4.6, Leading zero omitted, Abs format (unit mm)*
G04 Created by KiCad (PCBNEW (5.1.7-0-10_14)) date 2020-10-21 09:07:25*
%MOMM*%
%LPD*%
G01*
G04 APERTURE LIST*
%ADD10R,5.100000X5.100000*%
%ADD11R,3.150000X1.000000*%
%ADD12R,0.800000X0.900000*%
G04 APERTURE END LIST*
D10*
%TO.C,BT1*%
X121314540Y-110726220D03*
X146914540Y-110726220D03*
%TD*%
D11*
%TO.C,J1*%
X161762680Y-105595420D03*
X156712680Y-105595420D03*
X161762680Y-108135420D03*
X156712680Y-108135420D03*
X161762680Y-110675420D03*
X156712680Y-110675420D03*
%TD*%
D12*
%TO.C,Q1*%
X149199600Y-90313000D03*
X148249600Y-92313000D03*
X150149600Y-92313000D03*
%TD*%
%TO.C,R1*%
G36*
G01*
X140641020Y-70635281D02*
X140641020Y-69735279D01*
G75*
G02*
X140891019Y-69485280I249999J0D01*
G01*
X141591021Y-69485280D01*
G75*
G02*
X141841020Y-69735279I0J-249999D01*
G01*
X141841020Y-70635281D01*
G75*
G02*
X141591021Y-70885280I-249999J0D01*
G01*
X140891019Y-70885280D01*
G75*
G02*
X140641020Y-70635281I0J249999D01*
G01*
G37*
G36*
G01*
X138641020Y-70635281D02*
X138641020Y-69735279D01*
G75*
G02*
X138891019Y-69485280I249999J0D01*
G01*
X139591021Y-69485280D01*
G75*
G02*
X139841020Y-69735279I0J-249999D01*
G01*
X139841020Y-70635281D01*
G75*
G02*
X139591021Y-70885280I-249999J0D01*
G01*
X138891019Y-70885280D01*
G75*
G02*
X138641020Y-70635281I0J249999D01*
G01*
G37*
%TD*%
%TO.C,R2*%
G36*
G01*
X123812500Y-70607341D02*
X123812500Y-69707339D01*
G75*
G02*
X124062499Y-69457340I249999J0D01*
G01*
X124762501Y-69457340D01*
G75*
G02*
X125012500Y-69707339I0J-249999D01*
G01*
X125012500Y-70607341D01*
G75*
G02*
X124762501Y-70857340I-249999J0D01*
G01*
X124062499Y-70857340D01*
G75*
G02*
X123812500Y-70607341I0J249999D01*
G01*
G37*
G36*
G01*
X125812500Y-70607341D02*
X125812500Y-69707339D01*
G75*
G02*
X126062499Y-69457340I249999J0D01*
G01*
X126762501Y-69457340D01*
G75*
G02*
X127012500Y-69707339I0J-249999D01*
G01*
X127012500Y-70607341D01*
G75*
G02*
X126762501Y-70857340I-249999J0D01*
G01*
X126062499Y-70857340D01*
G75*
G02*
X125812500Y-70607341I0J249999D01*
G01*
G37*
%TD*%
%TO.C,R3*%
G36*
G01*
X157291619Y-95365520D02*
X158191621Y-95365520D01*
G75*
G02*
X158441620Y-95615519I0J-249999D01*
G01*
X158441620Y-96315521D01*
G75*
G02*
X158191621Y-96565520I-249999J0D01*
G01*
X157291619Y-96565520D01*
G75*
G02*
X157041620Y-96315521I0J249999D01*
G01*
X157041620Y-95615519D01*
G75*
G02*
X157291619Y-95365520I249999J0D01*
G01*
G37*
G36*
G01*
X157291619Y-93365520D02*
X158191621Y-93365520D01*
G75*
G02*
X158441620Y-93615519I0J-249999D01*
G01*
X158441620Y-94315521D01*
G75*
G02*
X158191621Y-94565520I-249999J0D01*
G01*
X157291619Y-94565520D01*
G75*
G02*
X157041620Y-94315521I0J249999D01*
G01*
X157041620Y-93615519D01*
G75*
G02*
X157291619Y-93365520I249999J0D01*
G01*
G37*
%TD*%
%TO.C,R4*%
G36*
G01*
X152367180Y-92745981D02*
X152367180Y-91845979D01*
G75*
G02*
X152617179Y-91595980I249999J0D01*
G01*
X153317181Y-91595980D01*
G75*
G02*
X153567180Y-91845979I0J-249999D01*
G01*
X153567180Y-92745981D01*
G75*
G02*
X153317181Y-92995980I-249999J0D01*
G01*
X152617179Y-92995980D01*
G75*
G02*
X152367180Y-92745981I0J249999D01*
G01*
G37*
G36*
G01*
X154367180Y-92745981D02*
X154367180Y-91845979D01*
G75*
G02*
X154617179Y-91595980I249999J0D01*
G01*
X155317181Y-91595980D01*
G75*
G02*
X155567180Y-91845979I0J-249999D01*
G01*
X155567180Y-92745981D01*
G75*
G02*
X155317181Y-92995980I-249999J0D01*
G01*
X154617179Y-92995980D01*
G75*
G02*
X154367180Y-92745981I0J249999D01*
G01*
G37*
%TD*%
%TO.C,U1*%
G36*
G01*
X153005920Y-99921200D02*
X153005920Y-99621200D01*
G75*
G02*
X153155920Y-99471200I150000J0D01*
G01*
X154805920Y-99471200D01*
G75*
G02*
X154955920Y-99621200I0J-150000D01*
G01*
X154955920Y-99921200D01*
G75*
G02*
X154805920Y-100071200I-150000J0D01*
G01*
X153155920Y-100071200D01*
G75*
G02*
X153005920Y-99921200I0J150000D01*
G01*
G37*
G36*
G01*
X153005920Y-98651200D02*
X153005920Y-98351200D01*
G75*
G02*
X153155920Y-98201200I150000J0D01*
G01*
X154805920Y-98201200D01*
G75*
G02*
X154955920Y-98351200I0J-150000D01*
G01*
X154955920Y-98651200D01*
G75*
G02*
X154805920Y-98801200I-150000J0D01*
G01*
X153155920Y-98801200D01*
G75*
G02*
X153005920Y-98651200I0J150000D01*
G01*
G37*
G36*
G01*
X153005920Y-97381200D02*
X153005920Y-97081200D01*
G75*
G02*
X153155920Y-96931200I150000J0D01*
G01*
X154805920Y-96931200D01*
G75*
G02*
X154955920Y-97081200I0J-150000D01*
G01*
X154955920Y-97381200D01*
G75*
G02*
X154805920Y-97531200I-150000J0D01*
G01*
X153155920Y-97531200D01*
G75*
G02*
X153005920Y-97381200I0J150000D01*
G01*
G37*
G36*
G01*
X153005920Y-96111200D02*
X153005920Y-95811200D01*
G75*
G02*
X153155920Y-95661200I150000J0D01*
G01*
X154805920Y-95661200D01*
G75*
G02*
X154955920Y-95811200I0J-150000D01*
G01*
X154955920Y-96111200D01*
G75*
G02*
X154805920Y-96261200I-150000J0D01*
G01*
X153155920Y-96261200D01*
G75*
G02*
X153005920Y-96111200I0J150000D01*
G01*
G37*
G36*
G01*
X148055920Y-96111200D02*
X148055920Y-95811200D01*
G75*
G02*
X148205920Y-95661200I150000J0D01*
G01*
X149855920Y-95661200D01*
G75*
G02*
X150005920Y-95811200I0J-150000D01*
G01*
X150005920Y-96111200D01*
G75*
G02*
X149855920Y-96261200I-150000J0D01*
G01*
X148205920Y-96261200D01*
G75*
G02*
X148055920Y-96111200I0J150000D01*
G01*
G37*
G36*
G01*
X148055920Y-97381200D02*
X148055920Y-97081200D01*
G75*
G02*
X148205920Y-96931200I150000J0D01*
G01*
X149855920Y-96931200D01*
G75*
G02*
X150005920Y-97081200I0J-150000D01*
G01*
X150005920Y-97381200D01*
G75*
G02*
X149855920Y-97531200I-150000J0D01*
G01*
X148205920Y-97531200D01*
G75*
G02*
X148055920Y-97381200I0J150000D01*
G01*
G37*
G36*
G01*
X148055920Y-98651200D02*
X148055920Y-98351200D01*
G75*
G02*
X148205920Y-98201200I150000J0D01*
G01*
X149855920Y-98201200D01*
G75*
G02*
X150005920Y-98351200I0J-150000D01*
G01*
X150005920Y-98651200D01*
G75*
G02*
X149855920Y-98801200I-150000J0D01*
G01*
X148205920Y-98801200D01*
G75*
G02*
X148055920Y-98651200I0J150000D01*
G01*
G37*
G36*
G01*
X148055920Y-99921200D02*
X148055920Y-99621200D01*
G75*
G02*
X148205920Y-99471200I150000J0D01*
G01*
X149855920Y-99471200D01*
G75*
G02*
X150005920Y-99621200I0J-150000D01*
G01*
X150005920Y-99921200D01*
G75*
G02*
X149855920Y-100071200I-150000J0D01*
G01*
X148205920Y-100071200D01*
G75*
G02*
X148055920Y-99921200I0J150000D01*
G01*
G37*
%TD*%
M02*
