%FSLAX45Y45*%
G04 Gerber Fmt 4.5, Leading zero omitted, Abs format (unit mm)*
G04 Created by KiCad (PCBNEW (5.1.7-0-10_14)) date 2020-10-21 09:07:20*
%MOMM*%
%LPD*%
G01*
G04 APERTURE LIST*
%ADD10C,0.200000*%
%ADD11C,0.300000*%
G04 APERTURE END LIST*
D10*
X12621580Y-6793042D02*
X12661580Y-6833042D01*
X12661580Y-6793042D02*
X12621580Y-6833042D01*
X12621834Y-6998920D02*
X12661834Y-7038920D01*
X12661834Y-6998920D02*
X12621834Y-7038920D01*
X14103162Y-6792142D02*
X14143162Y-6832142D01*
X14143162Y-6792142D02*
X14103162Y-6832142D01*
X14103162Y-6997142D02*
X14143162Y-7037142D01*
X14143162Y-6997142D02*
X14103162Y-7037142D01*
D11*
X9447335Y-14628142D02*
X9447335Y-14328142D01*
X9518764Y-14328142D01*
X9561621Y-14342428D01*
X9590193Y-14370999D01*
X9604478Y-14399571D01*
X9618764Y-14456714D01*
X9618764Y-14499571D01*
X9604478Y-14556714D01*
X9590193Y-14585285D01*
X9561621Y-14613857D01*
X9518764Y-14628142D01*
X9447335Y-14628142D01*
X9747335Y-14628142D02*
X9747335Y-14428142D01*
X9747335Y-14485285D02*
X9761621Y-14456714D01*
X9775907Y-14442428D01*
X9804478Y-14428142D01*
X9833050Y-14428142D01*
X9933050Y-14628142D02*
X9933050Y-14428142D01*
X9933050Y-14328142D02*
X9918764Y-14342428D01*
X9933050Y-14356714D01*
X9947335Y-14342428D01*
X9933050Y-14328142D01*
X9933050Y-14356714D01*
X10118764Y-14628142D02*
X10090193Y-14613857D01*
X10075907Y-14585285D01*
X10075907Y-14328142D01*
X10275907Y-14628142D02*
X10247335Y-14613857D01*
X10233050Y-14585285D01*
X10233050Y-14328142D01*
X10618764Y-14628142D02*
X10618764Y-14328142D01*
X10718764Y-14542428D01*
X10818764Y-14328142D01*
X10818764Y-14628142D01*
X11090193Y-14628142D02*
X11090193Y-14470999D01*
X11075907Y-14442428D01*
X11047335Y-14428142D01*
X10990193Y-14428142D01*
X10961621Y-14442428D01*
X11090193Y-14613857D02*
X11061621Y-14628142D01*
X10990193Y-14628142D01*
X10961621Y-14613857D01*
X10947335Y-14585285D01*
X10947335Y-14556714D01*
X10961621Y-14528142D01*
X10990193Y-14513857D01*
X11061621Y-14513857D01*
X11090193Y-14499571D01*
X11233050Y-14428142D02*
X11233050Y-14728142D01*
X11233050Y-14442428D02*
X11261621Y-14428142D01*
X11318764Y-14428142D01*
X11347335Y-14442428D01*
X11361621Y-14456714D01*
X11375907Y-14485285D01*
X11375907Y-14570999D01*
X11361621Y-14599571D01*
X11347335Y-14613857D01*
X11318764Y-14628142D01*
X11261621Y-14628142D01*
X11233050Y-14613857D01*
X11504478Y-14599571D02*
X11518764Y-14613857D01*
X11504478Y-14628142D01*
X11490193Y-14613857D01*
X11504478Y-14599571D01*
X11504478Y-14628142D01*
X11504478Y-14442428D02*
X11518764Y-14456714D01*
X11504478Y-14470999D01*
X11490193Y-14456714D01*
X11504478Y-14442428D01*
X11504478Y-14470999D01*
X9120907Y-15102428D02*
X9160907Y-15142428D01*
X9160907Y-15102428D02*
X9120907Y-15142428D01*
X9504478Y-14958142D02*
X9533050Y-14958142D01*
X9561621Y-14972428D01*
X9575907Y-14986714D01*
X9590193Y-15015285D01*
X9604478Y-15072428D01*
X9604478Y-15143857D01*
X9590193Y-15200999D01*
X9575907Y-15229571D01*
X9561621Y-15243857D01*
X9533050Y-15258142D01*
X9504478Y-15258142D01*
X9475907Y-15243857D01*
X9461621Y-15229571D01*
X9447335Y-15200999D01*
X9433050Y-15143857D01*
X9433050Y-15072428D01*
X9447335Y-15015285D01*
X9461621Y-14986714D01*
X9475907Y-14972428D01*
X9504478Y-14958142D01*
X9733050Y-15229571D02*
X9747335Y-15243857D01*
X9733050Y-15258142D01*
X9718764Y-15243857D01*
X9733050Y-15229571D01*
X9733050Y-15258142D01*
X10004478Y-15058142D02*
X10004478Y-15258142D01*
X9933050Y-14943857D02*
X9861621Y-15158142D01*
X10047335Y-15158142D01*
X10218764Y-14958142D02*
X10247335Y-14958142D01*
X10275907Y-14972428D01*
X10290193Y-14986714D01*
X10304478Y-15015285D01*
X10318764Y-15072428D01*
X10318764Y-15143857D01*
X10304478Y-15200999D01*
X10290193Y-15229571D01*
X10275907Y-15243857D01*
X10247335Y-15258142D01*
X10218764Y-15258142D01*
X10190193Y-15243857D01*
X10175907Y-15229571D01*
X10161621Y-15200999D01*
X10147335Y-15143857D01*
X10147335Y-15072428D01*
X10161621Y-15015285D01*
X10175907Y-14986714D01*
X10190193Y-14972428D01*
X10218764Y-14958142D01*
X10447335Y-15258142D02*
X10447335Y-15058142D01*
X10447335Y-15086714D02*
X10461621Y-15072428D01*
X10490193Y-15058142D01*
X10533050Y-15058142D01*
X10561621Y-15072428D01*
X10575907Y-15100999D01*
X10575907Y-15258142D01*
X10575907Y-15100999D02*
X10590193Y-15072428D01*
X10618764Y-15058142D01*
X10661621Y-15058142D01*
X10690193Y-15072428D01*
X10704478Y-15100999D01*
X10704478Y-15258142D01*
X10847335Y-15258142D02*
X10847335Y-15058142D01*
X10847335Y-15086714D02*
X10861621Y-15072428D01*
X10890193Y-15058142D01*
X10933050Y-15058142D01*
X10961621Y-15072428D01*
X10975907Y-15100999D01*
X10975907Y-15258142D01*
X10975907Y-15100999D02*
X10990193Y-15072428D01*
X11018764Y-15058142D01*
X11061621Y-15058142D01*
X11090193Y-15072428D01*
X11104478Y-15100999D01*
X11104478Y-15258142D01*
X11690193Y-14943857D02*
X11433050Y-15329571D01*
X12075907Y-14958142D02*
X12104478Y-14958142D01*
X12133050Y-14972428D01*
X12147335Y-14986714D01*
X12161621Y-15015285D01*
X12175907Y-15072428D01*
X12175907Y-15143857D01*
X12161621Y-15200999D01*
X12147335Y-15229571D01*
X12133050Y-15243857D01*
X12104478Y-15258142D01*
X12075907Y-15258142D01*
X12047335Y-15243857D01*
X12033050Y-15229571D01*
X12018764Y-15200999D01*
X12004478Y-15143857D01*
X12004478Y-15072428D01*
X12018764Y-15015285D01*
X12033050Y-14986714D01*
X12047335Y-14972428D01*
X12075907Y-14958142D01*
X12304478Y-15229571D02*
X12318764Y-15243857D01*
X12304478Y-15258142D01*
X12290193Y-15243857D01*
X12304478Y-15229571D01*
X12304478Y-15258142D01*
X12504478Y-14958142D02*
X12533050Y-14958142D01*
X12561621Y-14972428D01*
X12575907Y-14986714D01*
X12590193Y-15015285D01*
X12604478Y-15072428D01*
X12604478Y-15143857D01*
X12590193Y-15200999D01*
X12575907Y-15229571D01*
X12561621Y-15243857D01*
X12533050Y-15258142D01*
X12504478Y-15258142D01*
X12475907Y-15243857D01*
X12461621Y-15229571D01*
X12447335Y-15200999D01*
X12433050Y-15143857D01*
X12433050Y-15072428D01*
X12447335Y-15015285D01*
X12461621Y-14986714D01*
X12475907Y-14972428D01*
X12504478Y-14958142D01*
X12890193Y-15258142D02*
X12718764Y-15258142D01*
X12804478Y-15258142D02*
X12804478Y-14958142D01*
X12775907Y-15000999D01*
X12747335Y-15029571D01*
X12718764Y-15043857D01*
X13147335Y-14958142D02*
X13090193Y-14958142D01*
X13061621Y-14972428D01*
X13047335Y-14986714D01*
X13018764Y-15029571D01*
X13004478Y-15086714D01*
X13004478Y-15200999D01*
X13018764Y-15229571D01*
X13033050Y-15243857D01*
X13061621Y-15258142D01*
X13118764Y-15258142D01*
X13147335Y-15243857D01*
X13161621Y-15229571D01*
X13175907Y-15200999D01*
X13175907Y-15129571D01*
X13161621Y-15100999D01*
X13147335Y-15086714D01*
X13118764Y-15072428D01*
X13061621Y-15072428D01*
X13033050Y-15086714D01*
X13018764Y-15100999D01*
X13004478Y-15129571D01*
X13290193Y-14958142D02*
X13290193Y-15015285D01*
X13404478Y-14958142D02*
X13404478Y-15015285D01*
X13847335Y-15372428D02*
X13833050Y-15358142D01*
X13804478Y-15315285D01*
X13790193Y-15286714D01*
X13775907Y-15243857D01*
X13761621Y-15172428D01*
X13761621Y-15115285D01*
X13775907Y-15043857D01*
X13790193Y-15000999D01*
X13804478Y-14972428D01*
X13833050Y-14929571D01*
X13847335Y-14915285D01*
X14090193Y-15058142D02*
X14090193Y-15258142D01*
X14018764Y-14943857D02*
X13947335Y-15158142D01*
X14133050Y-15158142D01*
X14475907Y-15258142D02*
X14475907Y-14958142D01*
X14604478Y-15258142D02*
X14604478Y-15100999D01*
X14590193Y-15072428D01*
X14561621Y-15058142D01*
X14518764Y-15058142D01*
X14490193Y-15072428D01*
X14475907Y-15086714D01*
X14790193Y-15258142D02*
X14761621Y-15243857D01*
X14747335Y-15229571D01*
X14733050Y-15200999D01*
X14733050Y-15115285D01*
X14747335Y-15086714D01*
X14761621Y-15072428D01*
X14790193Y-15058142D01*
X14833050Y-15058142D01*
X14861621Y-15072428D01*
X14875907Y-15086714D01*
X14890193Y-15115285D01*
X14890193Y-15200999D01*
X14875907Y-15229571D01*
X14861621Y-15243857D01*
X14833050Y-15258142D01*
X14790193Y-15258142D01*
X15061621Y-15258142D02*
X15033050Y-15243857D01*
X15018764Y-15215285D01*
X15018764Y-14958142D01*
X15290193Y-15243857D02*
X15261621Y-15258142D01*
X15204478Y-15258142D01*
X15175907Y-15243857D01*
X15161621Y-15215285D01*
X15161621Y-15100999D01*
X15175907Y-15072428D01*
X15204478Y-15058142D01*
X15261621Y-15058142D01*
X15290193Y-15072428D01*
X15304478Y-15100999D01*
X15304478Y-15129571D01*
X15161621Y-15158142D01*
X15418764Y-15243857D02*
X15447335Y-15258142D01*
X15504478Y-15258142D01*
X15533050Y-15243857D01*
X15547335Y-15215285D01*
X15547335Y-15200999D01*
X15533050Y-15172428D01*
X15504478Y-15158142D01*
X15461621Y-15158142D01*
X15433050Y-15143857D01*
X15418764Y-15115285D01*
X15418764Y-15100999D01*
X15433050Y-15072428D01*
X15461621Y-15058142D01*
X15504478Y-15058142D01*
X15533050Y-15072428D01*
X15647335Y-15372428D02*
X15661621Y-15358142D01*
X15690193Y-15315285D01*
X15704478Y-15286714D01*
X15718764Y-15243857D01*
X15733050Y-15172428D01*
X15733050Y-15115285D01*
X15718764Y-15043857D01*
X15704478Y-15000999D01*
X15690193Y-14972428D01*
X15661621Y-14929571D01*
X15647335Y-14915285D01*
M02*
