%TF.GenerationSoftware,KiCad,Pcbnew,(5.1.7-0-10_14)*%
%TF.CreationDate,2020-10-21T09:07:25+08:00*%
%TF.ProjectId,HallowBadges,48616c6c-6f77-4426-9164-6765732e6b69,rev?*%
%TF.SameCoordinates,Original*%
%TF.FileFunction,Copper,L1,Top*%
%TF.FilePolarity,Positive*%
%FSLAX46Y46*%
G04 Gerber Fmt 4.6, Leading zero omitted, Abs format (unit mm)*
G04 Created by KiCad (PCBNEW (5.1.7-0-10_14)) date 2020-10-21 09:07:25*
%MOMM*%
%LPD*%
G01*
G04 APERTURE LIST*
%TA.AperFunction,EtchedComponent*%
%ADD10C,0.010000*%
%TD*%
%TA.AperFunction,ViaPad*%
%ADD11C,0.800000*%
%TD*%
%TA.AperFunction,Conductor*%
%ADD12C,0.500000*%
%TD*%
G04 APERTURE END LIST*
D10*
%TO.C,Ref\u002A\u002A*%
G36*
X134995515Y-48057622D02*
G01*
X135594784Y-48070080D01*
X136180298Y-48094300D01*
X136743007Y-48130092D01*
X137269644Y-48176836D01*
X137712049Y-48231528D01*
X138186297Y-48307333D01*
X138688230Y-48403087D01*
X139213693Y-48517625D01*
X139758530Y-48649783D01*
X140318584Y-48798398D01*
X140889700Y-48962304D01*
X141467721Y-49140339D01*
X142048492Y-49331337D01*
X142627855Y-49534134D01*
X143201657Y-49747567D01*
X143765739Y-49970471D01*
X143962988Y-50051711D01*
X144658499Y-50352388D01*
X145358884Y-50676599D01*
X146051871Y-51018323D01*
X146725190Y-51371536D01*
X147270894Y-51675165D01*
X148171075Y-52214334D01*
X149057475Y-52793433D01*
X149929883Y-53412296D01*
X150788089Y-54070755D01*
X151631885Y-54768643D01*
X152461061Y-55505791D01*
X153275407Y-56282034D01*
X154074712Y-57097202D01*
X154134790Y-57160690D01*
X154847701Y-57942410D01*
X155530463Y-58744698D01*
X156181790Y-59565575D01*
X156800396Y-60403058D01*
X157384995Y-61255168D01*
X157934300Y-62119922D01*
X158447026Y-62995340D01*
X158921885Y-63879442D01*
X159357593Y-64770245D01*
X159752862Y-65665769D01*
X159914125Y-66062014D01*
X159976321Y-66219912D01*
X160033935Y-66368654D01*
X160088576Y-66512889D01*
X160141855Y-66657267D01*
X160195381Y-66806436D01*
X160250764Y-66965048D01*
X160309615Y-67137751D01*
X160373542Y-67329194D01*
X160444155Y-67544029D01*
X160523065Y-67786903D01*
X160611881Y-68062467D01*
X160676976Y-68265340D01*
X160802925Y-68659739D01*
X160916132Y-69017447D01*
X161017490Y-69341849D01*
X161107896Y-69636330D01*
X161188245Y-69904275D01*
X161259433Y-70149070D01*
X161322355Y-70374098D01*
X161377906Y-70582746D01*
X161426983Y-70778399D01*
X161470480Y-70964441D01*
X161509293Y-71144257D01*
X161544317Y-71321234D01*
X161576449Y-71498754D01*
X161606583Y-71680205D01*
X161635615Y-71868970D01*
X161642351Y-71914597D01*
X161670154Y-72101582D01*
X161697513Y-72279408D01*
X161725355Y-72453218D01*
X161754610Y-72628153D01*
X161786204Y-72809356D01*
X161821067Y-73001970D01*
X161860125Y-73211136D01*
X161904308Y-73441997D01*
X161954544Y-73699695D01*
X162011760Y-73989372D01*
X162065779Y-74260595D01*
X162105006Y-74457109D01*
X162140689Y-74636360D01*
X162173398Y-74801586D01*
X162203706Y-74956023D01*
X162232182Y-75102910D01*
X162259400Y-75245483D01*
X162285931Y-75386979D01*
X162312345Y-75530636D01*
X162339215Y-75679690D01*
X162367112Y-75837378D01*
X162396608Y-76006939D01*
X162428273Y-76191609D01*
X162462680Y-76394624D01*
X162500400Y-76619223D01*
X162542004Y-76868643D01*
X162588064Y-77146120D01*
X162639151Y-77454891D01*
X162695837Y-77798195D01*
X162758694Y-78179267D01*
X162774510Y-78275180D01*
X162881213Y-78920101D01*
X162982242Y-79525835D01*
X163078144Y-80095073D01*
X163169463Y-80630501D01*
X163256747Y-81134809D01*
X163340541Y-81610684D01*
X163421390Y-82060815D01*
X163499842Y-82487890D01*
X163576442Y-82894598D01*
X163651736Y-83283627D01*
X163726270Y-83657665D01*
X163800590Y-84019400D01*
X163875242Y-84371520D01*
X163950772Y-84716715D01*
X164027725Y-85057672D01*
X164106649Y-85397080D01*
X164188089Y-85737626D01*
X164272590Y-86082000D01*
X164360699Y-86432889D01*
X164452962Y-86792982D01*
X164549925Y-87164967D01*
X164652134Y-87551533D01*
X164678902Y-87652014D01*
X165040010Y-88969583D01*
X165417474Y-90277001D01*
X165810184Y-91571094D01*
X166217029Y-92848690D01*
X166636898Y-94106615D01*
X167068683Y-95341696D01*
X167511271Y-96550761D01*
X167963554Y-97730636D01*
X168424419Y-98878148D01*
X168892758Y-99990124D01*
X169367460Y-101063392D01*
X169387024Y-101106482D01*
X169489416Y-101329715D01*
X169600183Y-101567528D01*
X169716143Y-101813332D01*
X169834116Y-102060542D01*
X169950922Y-102302569D01*
X170063380Y-102532826D01*
X170168308Y-102744726D01*
X170262528Y-102931681D01*
X170342858Y-103087104D01*
X170348410Y-103097638D01*
X170415369Y-103227219D01*
X170478477Y-103355732D01*
X170540138Y-103488879D01*
X170602758Y-103632359D01*
X170668741Y-103791871D01*
X170740492Y-103973115D01*
X170820417Y-104181792D01*
X170910919Y-104423601D01*
X170932998Y-104483191D01*
X171087167Y-104916804D01*
X171232893Y-105362273D01*
X171371885Y-105825565D01*
X171505848Y-106312652D01*
X171636488Y-106829501D01*
X171765513Y-107382083D01*
X171779132Y-107442847D01*
X171919556Y-108097159D01*
X172049312Y-108753380D01*
X172168147Y-109408715D01*
X172275805Y-110060369D01*
X172372032Y-110705546D01*
X172456574Y-111341451D01*
X172529176Y-111965289D01*
X172589584Y-112574264D01*
X172637542Y-113165582D01*
X172672798Y-113736447D01*
X172695096Y-114284064D01*
X172704182Y-114805637D01*
X172699800Y-115298372D01*
X172681698Y-115759472D01*
X172649620Y-116186143D01*
X172607737Y-116544514D01*
X172549018Y-116902875D01*
X172478576Y-117221883D01*
X172395863Y-117503012D01*
X172300332Y-117747742D01*
X172191435Y-117957547D01*
X172068626Y-118133905D01*
X171983707Y-118228663D01*
X171873907Y-118331745D01*
X171776382Y-118403663D01*
X171680957Y-118449143D01*
X171577454Y-118472909D01*
X171455698Y-118479687D01*
X171443227Y-118479622D01*
X171295555Y-118468004D01*
X171152513Y-118433743D01*
X171004363Y-118373533D01*
X170841368Y-118284071D01*
X170809784Y-118264658D01*
X170601148Y-118119742D01*
X170377354Y-117935749D01*
X170138658Y-117713027D01*
X169885316Y-117451927D01*
X169617584Y-117152799D01*
X169335718Y-116815991D01*
X169039973Y-116441853D01*
X168730606Y-116030736D01*
X168407872Y-115582988D01*
X168072027Y-115098960D01*
X167723328Y-114579001D01*
X167362030Y-114023461D01*
X166988390Y-113432689D01*
X166602662Y-112807035D01*
X166205103Y-112146849D01*
X165795969Y-111452481D01*
X165687333Y-111265706D01*
X165575522Y-111071964D01*
X165450405Y-110853413D01*
X165315676Y-110616626D01*
X165175026Y-110368177D01*
X165032150Y-110114638D01*
X164890740Y-109862583D01*
X164754489Y-109618585D01*
X164627092Y-109389216D01*
X164512240Y-109181051D01*
X164413626Y-109000661D01*
X164383835Y-108945680D01*
X164325945Y-108839356D01*
X164273000Y-108743627D01*
X164229126Y-108665840D01*
X164198451Y-108613343D01*
X164187666Y-108596430D01*
X164166190Y-108568642D01*
X164163024Y-108577190D01*
X164169239Y-108607014D01*
X164180652Y-108663503D01*
X164197886Y-108756566D01*
X164220066Y-108880978D01*
X164246312Y-109031513D01*
X164275746Y-109202945D01*
X164307492Y-109390049D01*
X164340670Y-109587600D01*
X164374404Y-109790371D01*
X164407816Y-109993136D01*
X164440027Y-110190672D01*
X164470160Y-110377751D01*
X164497337Y-110549148D01*
X164519822Y-110694024D01*
X164643749Y-111529267D01*
X164754093Y-112327288D01*
X164851106Y-113090873D01*
X164935040Y-113822809D01*
X165006149Y-114525880D01*
X165064686Y-115202874D01*
X165110901Y-115856577D01*
X165145050Y-116489775D01*
X165167384Y-117105253D01*
X165178155Y-117705799D01*
X165179297Y-117964595D01*
X165178082Y-118313807D01*
X165174002Y-118627796D01*
X165166686Y-118913600D01*
X165155762Y-119178254D01*
X165140862Y-119428797D01*
X165121613Y-119672264D01*
X165097646Y-119915692D01*
X165068589Y-120166120D01*
X165059535Y-120238097D01*
X164989617Y-120701306D01*
X164903070Y-121126650D01*
X164800012Y-121514006D01*
X164680561Y-121863251D01*
X164544832Y-122174263D01*
X164392943Y-122446919D01*
X164225011Y-122681096D01*
X164041153Y-122876673D01*
X163841486Y-123033525D01*
X163626126Y-123151530D01*
X163395190Y-123230566D01*
X163148796Y-123270511D01*
X162887061Y-123271240D01*
X162610100Y-123232633D01*
X162318032Y-123154565D01*
X162288644Y-123144801D01*
X161956705Y-123014346D01*
X161613200Y-122843466D01*
X161258368Y-122632388D01*
X160892451Y-122381342D01*
X160515689Y-122090555D01*
X160128325Y-121760255D01*
X159730600Y-121390670D01*
X159322754Y-120982028D01*
X158905029Y-120534558D01*
X158477667Y-120048486D01*
X158040907Y-119524042D01*
X157594993Y-118961453D01*
X157140164Y-118360948D01*
X156940851Y-118089680D01*
X156490413Y-117458922D01*
X156029871Y-116790087D01*
X155560793Y-116085791D01*
X155084745Y-115348651D01*
X154603295Y-114581282D01*
X154118011Y-113786301D01*
X153630460Y-112966323D01*
X153142209Y-112123965D01*
X152654825Y-111261842D01*
X152169876Y-110382571D01*
X151688930Y-109488768D01*
X151213553Y-108583048D01*
X151019013Y-108205728D01*
X150936908Y-108045956D01*
X150860659Y-107898185D01*
X150792460Y-107766622D01*
X150734504Y-107655473D01*
X150688987Y-107568945D01*
X150658103Y-107511244D01*
X150644044Y-107486575D01*
X150643622Y-107486061D01*
X150638710Y-107495561D01*
X150643238Y-107534153D01*
X150643998Y-107538097D01*
X150649540Y-107578835D01*
X150657774Y-107656594D01*
X150668270Y-107766180D01*
X150680595Y-107902394D01*
X150694316Y-108060043D01*
X150709002Y-108233929D01*
X150724220Y-108418856D01*
X150739537Y-108609629D01*
X150754522Y-108801051D01*
X150768743Y-108987926D01*
X150781766Y-109165059D01*
X150793159Y-109327252D01*
X150794558Y-109347847D01*
X150853178Y-110335366D01*
X150895453Y-111317941D01*
X150921349Y-112290306D01*
X150930835Y-113247194D01*
X150923881Y-114183339D01*
X150900453Y-115093475D01*
X150860522Y-115972335D01*
X150836606Y-116364597D01*
X150774621Y-117164933D01*
X150696335Y-117939325D01*
X150602073Y-118685981D01*
X150492158Y-119403109D01*
X150366914Y-120088917D01*
X150226664Y-120741615D01*
X150071731Y-121359411D01*
X149902439Y-121940513D01*
X149744552Y-122412514D01*
X149532784Y-122964449D01*
X149305141Y-123477209D01*
X149061513Y-123950904D01*
X148801793Y-124385648D01*
X148525870Y-124781554D01*
X148233636Y-125138732D01*
X147924981Y-125457297D01*
X147599796Y-125737359D01*
X147257972Y-125979031D01*
X146899400Y-126182426D01*
X146523970Y-126347655D01*
X146131573Y-126474832D01*
X145722101Y-126564068D01*
X145704560Y-126566982D01*
X145332358Y-126609096D01*
X144937991Y-126617763D01*
X144524160Y-126593794D01*
X144093566Y-126538004D01*
X143648909Y-126451206D01*
X143192890Y-126334213D01*
X142728207Y-126187839D01*
X142257563Y-126012898D01*
X141783657Y-125810202D01*
X141309190Y-125580565D01*
X140836861Y-125324801D01*
X140369372Y-125043723D01*
X140128063Y-124887147D01*
X139562750Y-124488316D01*
X139002328Y-124047938D01*
X138447264Y-123566568D01*
X137898029Y-123044760D01*
X137355090Y-122483070D01*
X136818919Y-121882051D01*
X136289983Y-121242259D01*
X135768752Y-120564248D01*
X135255695Y-119848574D01*
X134751281Y-119095791D01*
X134255980Y-118306453D01*
X133770261Y-117481117D01*
X133582508Y-117147764D01*
X133124134Y-116297349D01*
X132674211Y-115409631D01*
X132234817Y-114489157D01*
X131808030Y-113540475D01*
X131395931Y-112568131D01*
X131000596Y-111576674D01*
X130824880Y-111115264D01*
X130755803Y-110928908D01*
X130679157Y-110718196D01*
X130597427Y-110490260D01*
X130513098Y-110252233D01*
X130428658Y-110011248D01*
X130346592Y-109774437D01*
X130269385Y-109548933D01*
X130199525Y-109341869D01*
X130139496Y-109160378D01*
X130092688Y-109014472D01*
X130057697Y-108905296D01*
X130026309Y-108811908D01*
X130000925Y-108741099D01*
X129983944Y-108699656D01*
X129978598Y-108691680D01*
X129970985Y-108711361D01*
X129959344Y-108765179D01*
X129945163Y-108845300D01*
X129929928Y-108943888D01*
X129927392Y-108961555D01*
X129908635Y-109088571D01*
X129883390Y-109251739D01*
X129852586Y-109445533D01*
X129817149Y-109664427D01*
X129778006Y-109902894D01*
X129736085Y-110155407D01*
X129692312Y-110416440D01*
X129647615Y-110680468D01*
X129602921Y-110941962D01*
X129559157Y-111195397D01*
X129517249Y-111435246D01*
X129478126Y-111655982D01*
X129442714Y-111852080D01*
X129440043Y-111866680D01*
X129214465Y-113060332D01*
X128980164Y-114225830D01*
X128737438Y-115362109D01*
X128486584Y-116468101D01*
X128227901Y-117542742D01*
X127961686Y-118584965D01*
X127688239Y-119593703D01*
X127407857Y-120567891D01*
X127120838Y-121506462D01*
X126827480Y-122408350D01*
X126528082Y-123272490D01*
X126222942Y-124097815D01*
X125912357Y-124883258D01*
X125596627Y-125627754D01*
X125583852Y-125656764D01*
X125504571Y-125832435D01*
X125410848Y-126033278D01*
X125306210Y-126252229D01*
X125194184Y-126482226D01*
X125078297Y-126716204D01*
X124962077Y-126947102D01*
X124849051Y-127167856D01*
X124742746Y-127371403D01*
X124646690Y-127550680D01*
X124564409Y-127698624D01*
X124562360Y-127702208D01*
X124273009Y-128190251D01*
X123985429Y-128639382D01*
X123697260Y-129052820D01*
X123406141Y-129433785D01*
X123109715Y-129785494D01*
X122805620Y-130111168D01*
X122771025Y-130146119D01*
X122511726Y-130396934D01*
X122265022Y-130614787D01*
X122024460Y-130804523D01*
X121783588Y-130970985D01*
X121535954Y-131119018D01*
X121334744Y-131224416D01*
X120967529Y-131384461D01*
X120597773Y-131502452D01*
X120225814Y-131578330D01*
X119851991Y-131612035D01*
X119476641Y-131603508D01*
X119283794Y-131582751D01*
X118931692Y-131516725D01*
X118572966Y-131413410D01*
X118204810Y-131271892D01*
X117914998Y-131137240D01*
X117506267Y-130912232D01*
X117116351Y-130653130D01*
X116744270Y-130358974D01*
X116389044Y-130028802D01*
X116049691Y-129661652D01*
X115725231Y-129256564D01*
X115414683Y-128812577D01*
X115209588Y-128485678D01*
X114926463Y-127981560D01*
X114659835Y-127438895D01*
X114409821Y-126858173D01*
X114176538Y-126239882D01*
X113960103Y-125584514D01*
X113760635Y-124892556D01*
X113578252Y-124164500D01*
X113413069Y-123400834D01*
X113265206Y-122602048D01*
X113134779Y-121768631D01*
X113021907Y-120901073D01*
X112926706Y-119999864D01*
X112849295Y-119065494D01*
X112812227Y-118502430D01*
X112798795Y-118272168D01*
X112787153Y-118058940D01*
X112777131Y-117856972D01*
X112768556Y-117660490D01*
X112761258Y-117463720D01*
X112755066Y-117260887D01*
X112749809Y-117046218D01*
X112745315Y-116813937D01*
X112741413Y-116558271D01*
X112737933Y-116273445D01*
X112734703Y-115953686D01*
X112733815Y-115856597D01*
X112730540Y-115100049D01*
X112734846Y-114373710D01*
X112747060Y-113666079D01*
X112767509Y-112965657D01*
X112796522Y-112260944D01*
X112834425Y-111540441D01*
X112875512Y-110882430D01*
X112888073Y-110698467D01*
X112902107Y-110500629D01*
X112917145Y-110294914D01*
X112932718Y-110087325D01*
X112948356Y-109883860D01*
X112963592Y-109690520D01*
X112977956Y-109513305D01*
X112990980Y-109358215D01*
X113002194Y-109231250D01*
X113011129Y-109138410D01*
X113013640Y-109115014D01*
X113011261Y-109099942D01*
X112996522Y-109124290D01*
X112969820Y-109187110D01*
X112931547Y-109287453D01*
X112882101Y-109424374D01*
X112868020Y-109464264D01*
X112408680Y-110716146D01*
X111908074Y-111976473D01*
X111366355Y-113244933D01*
X110783678Y-114521215D01*
X110160194Y-115805011D01*
X109496056Y-117096008D01*
X108791419Y-118393898D01*
X108046433Y-119698369D01*
X107261254Y-121009111D01*
X106852453Y-121668628D01*
X106626243Y-122026740D01*
X106394579Y-122388150D01*
X106159484Y-122749935D01*
X105922978Y-123109172D01*
X105687083Y-123462940D01*
X105453819Y-123808315D01*
X105225209Y-124142376D01*
X105003272Y-124462199D01*
X104790031Y-124764863D01*
X104587506Y-125047444D01*
X104397718Y-125307022D01*
X104222689Y-125540672D01*
X104064439Y-125745472D01*
X103924991Y-125918501D01*
X103859699Y-125995974D01*
X103462718Y-126444775D01*
X103063739Y-126869891D01*
X102664821Y-127269572D01*
X102268026Y-127642070D01*
X101875414Y-127985636D01*
X101489048Y-128298522D01*
X101110987Y-128578978D01*
X100743293Y-128825258D01*
X100388026Y-129035610D01*
X100106012Y-129180740D01*
X99772542Y-129325310D01*
X99457444Y-129431939D01*
X99160288Y-129500617D01*
X98880645Y-129531334D01*
X98618088Y-129524079D01*
X98372187Y-129478841D01*
X98142512Y-129395610D01*
X97928636Y-129274375D01*
X97737716Y-129122167D01*
X97560602Y-128934587D01*
X97398596Y-128712352D01*
X97251515Y-128454864D01*
X97119173Y-128161526D01*
X97001385Y-127831743D01*
X96897967Y-127464918D01*
X96808735Y-127060453D01*
X96733502Y-126617752D01*
X96672086Y-126136218D01*
X96624300Y-125615256D01*
X96615787Y-125498014D01*
X96608572Y-125364984D01*
X96602610Y-125196058D01*
X96597898Y-124997654D01*
X96594438Y-124776189D01*
X96592229Y-124538084D01*
X96591270Y-124289754D01*
X96591562Y-124037620D01*
X96593103Y-123788099D01*
X96595894Y-123547609D01*
X96599935Y-123322569D01*
X96605226Y-123119397D01*
X96611765Y-122944511D01*
X96615891Y-122862764D01*
X96689326Y-121769314D01*
X96786066Y-120674896D01*
X96906940Y-119572186D01*
X97052775Y-118453858D01*
X97224400Y-117312587D01*
X97287057Y-116928360D01*
X97314643Y-116761048D01*
X97339551Y-116607525D01*
X97361023Y-116472650D01*
X97378302Y-116361283D01*
X97390632Y-116278286D01*
X97397254Y-116228519D01*
X97398018Y-116215921D01*
X97378847Y-116224039D01*
X97332851Y-116250983D01*
X97268246Y-116291826D01*
X97232894Y-116315014D01*
X96969302Y-116470299D01*
X96704173Y-116588287D01*
X96440311Y-116668291D01*
X96180523Y-116709624D01*
X95927612Y-116711598D01*
X95728433Y-116683601D01*
X95515413Y-116618229D01*
X95307487Y-116516264D01*
X95111938Y-116383392D01*
X94936051Y-116225298D01*
X94787111Y-116047665D01*
X94675009Y-115861527D01*
X94621905Y-115748703D01*
X94581691Y-115649294D01*
X94552650Y-115554227D01*
X94533067Y-115454428D01*
X94521225Y-115340822D01*
X94515408Y-115204334D01*
X94513899Y-115035891D01*
X94513932Y-115009930D01*
X94516174Y-114829621D01*
X94523334Y-114677225D01*
X94537329Y-114541115D01*
X94560074Y-114409668D01*
X94593486Y-114271258D01*
X94639480Y-114114260D01*
X94684881Y-113972764D01*
X94718909Y-113872156D01*
X94753938Y-113775853D01*
X94792012Y-113679682D01*
X94835178Y-113579470D01*
X94885480Y-113471044D01*
X94944964Y-113350231D01*
X95015675Y-113212859D01*
X95099657Y-113054754D01*
X95198957Y-112871745D01*
X95315619Y-112659658D01*
X95426659Y-112459347D01*
X95840456Y-111708421D01*
X96266883Y-110922524D01*
X96703578Y-110106278D01*
X97148182Y-109264301D01*
X97598333Y-108401213D01*
X98051671Y-107521636D01*
X98505836Y-106630189D01*
X98958466Y-105731492D01*
X99407201Y-104830165D01*
X99849680Y-103930829D01*
X100283543Y-103038102D01*
X100706428Y-102156606D01*
X100910020Y-101727847D01*
X101767521Y-99893588D01*
X102597163Y-98074290D01*
X103398676Y-96270688D01*
X104171791Y-94483521D01*
X104916238Y-92713523D01*
X105631750Y-90961433D01*
X105699095Y-90791335D01*
X126804007Y-90791335D01*
X126809033Y-91222631D01*
X126824779Y-91557625D01*
X126877974Y-92151297D01*
X126958454Y-92713885D01*
X127066815Y-93247165D01*
X127203655Y-93752913D01*
X127369569Y-94232904D01*
X127565154Y-94688916D01*
X127791005Y-95122724D01*
X128047720Y-95536104D01*
X128260208Y-95832930D01*
X128351037Y-95944915D01*
X128467315Y-96076459D01*
X128601764Y-96220286D01*
X128747109Y-96369120D01*
X128896072Y-96515685D01*
X129041377Y-96652704D01*
X129175748Y-96772900D01*
X129291907Y-96868998D01*
X129310977Y-96883673D01*
X129748140Y-97189692D01*
X130204782Y-97459232D01*
X130682060Y-97692798D01*
X131181130Y-97890900D01*
X131703149Y-98054044D01*
X132249276Y-98182739D01*
X132290744Y-98190920D01*
X132721639Y-98265276D01*
X133131220Y-98316668D01*
X133516624Y-98344952D01*
X133874990Y-98349985D01*
X134203457Y-98331624D01*
X134448489Y-98299010D01*
X134918210Y-98201860D01*
X135399882Y-98072588D01*
X135882611Y-97914713D01*
X136355503Y-97731754D01*
X136746425Y-97556834D01*
X137257988Y-97290751D01*
X137737635Y-96997270D01*
X138184963Y-96676917D01*
X138599568Y-96330222D01*
X138981047Y-95957713D01*
X139328998Y-95559917D01*
X139643016Y-95137362D01*
X139922699Y-94690578D01*
X140167643Y-94220092D01*
X140377446Y-93726432D01*
X140551703Y-93210127D01*
X140690013Y-92671705D01*
X140763010Y-92295066D01*
X140802286Y-92046784D01*
X140832902Y-91812890D01*
X140855680Y-91582763D01*
X140871441Y-91345784D01*
X140881007Y-91091331D01*
X140885199Y-90808786D01*
X140885540Y-90710597D01*
X140879768Y-90277824D01*
X140860794Y-89875854D01*
X140827694Y-89494976D01*
X140779545Y-89125481D01*
X140715426Y-88757657D01*
X140686427Y-88615097D01*
X140551192Y-88065460D01*
X140383206Y-87542290D01*
X140182632Y-87045811D01*
X139949635Y-86576244D01*
X139684376Y-86133811D01*
X139387020Y-85718734D01*
X139057731Y-85331236D01*
X138696671Y-84971539D01*
X138304005Y-84639865D01*
X137879896Y-84336436D01*
X137424507Y-84061475D01*
X137276548Y-83981810D01*
X136793737Y-83751547D01*
X136283265Y-83552056D01*
X135744651Y-83383192D01*
X135177417Y-83244808D01*
X134581084Y-83136761D01*
X134401560Y-83110935D01*
X134238126Y-83092945D01*
X134049080Y-83079081D01*
X133844248Y-83069492D01*
X133633454Y-83064324D01*
X133426524Y-83063726D01*
X133233285Y-83067846D01*
X133063560Y-83076833D01*
X132941060Y-83088936D01*
X132378525Y-83183574D01*
X131821715Y-83319103D01*
X131268894Y-83495805D01*
X131123869Y-83552094D01*
X130952644Y-83625693D01*
X130765095Y-83711767D01*
X130571102Y-83805481D01*
X130380541Y-83902000D01*
X130203293Y-83996488D01*
X130049233Y-84084112D01*
X129977727Y-84127777D01*
X129547588Y-84423601D01*
X129148078Y-84748536D01*
X128779359Y-85102300D01*
X128441595Y-85484610D01*
X128134949Y-85895185D01*
X127859583Y-86333742D01*
X127615661Y-86799999D01*
X127403346Y-87293674D01*
X127222800Y-87814484D01*
X127074187Y-88362147D01*
X126957670Y-88936382D01*
X126878314Y-89493514D01*
X126839050Y-89911268D01*
X126814147Y-90349045D01*
X126804007Y-90791335D01*
X105699095Y-90791335D01*
X106318056Y-89227987D01*
X106974887Y-87513921D01*
X107601974Y-85819973D01*
X108199049Y-84146879D01*
X108765841Y-82495377D01*
X109302082Y-80866202D01*
X109807502Y-79260092D01*
X110281833Y-77677783D01*
X110724805Y-76120013D01*
X111136148Y-74587518D01*
X111515595Y-73081034D01*
X111773495Y-71992941D01*
X111910470Y-71391675D01*
X112037506Y-70818239D01*
X112156260Y-70264235D01*
X112268383Y-69721263D01*
X112375531Y-69180924D01*
X112429827Y-68895336D01*
X122215565Y-68895336D01*
X122221728Y-69150676D01*
X122238938Y-69376431D01*
X122264181Y-69549116D01*
X122360647Y-69999907D01*
X122479274Y-70462681D01*
X122617262Y-70929410D01*
X122771813Y-71392067D01*
X122940128Y-71842623D01*
X123119409Y-72273052D01*
X123306856Y-72675325D01*
X123451193Y-72953865D01*
X123702022Y-73383623D01*
X123965174Y-73774076D01*
X124240410Y-74125020D01*
X124527492Y-74436250D01*
X124826179Y-74707562D01*
X125136232Y-74938751D01*
X125457413Y-75129613D01*
X125789482Y-75279943D01*
X126132199Y-75389537D01*
X126358227Y-75438419D01*
X126571167Y-75465859D01*
X126807415Y-75478844D01*
X127050483Y-75477349D01*
X127283881Y-75461347D01*
X127440960Y-75440103D01*
X127772952Y-75362766D01*
X128086155Y-75247532D01*
X128380440Y-75094505D01*
X128655681Y-74903786D01*
X128911749Y-74675477D01*
X129148516Y-74409682D01*
X129365856Y-74106501D01*
X129563639Y-73766038D01*
X129584368Y-73725979D01*
X129755682Y-73354356D01*
X129906783Y-72948608D01*
X130037863Y-72508007D01*
X130149118Y-72031829D01*
X130240740Y-71519347D01*
X130307879Y-71015014D01*
X130317554Y-70905737D01*
X130326334Y-70760138D01*
X130334148Y-70584222D01*
X130340923Y-70383992D01*
X130346590Y-70165452D01*
X130351076Y-69934606D01*
X130354311Y-69697457D01*
X130356223Y-69460009D01*
X130356742Y-69228267D01*
X130355797Y-69008233D01*
X130353315Y-68805913D01*
X130353103Y-68796639D01*
X136696113Y-68796639D01*
X136696399Y-68962197D01*
X136700717Y-69097997D01*
X136704501Y-69152347D01*
X136728608Y-69347572D01*
X136768631Y-69575500D01*
X136822964Y-69830299D01*
X136890003Y-70106133D01*
X136968141Y-70397169D01*
X137055774Y-70697573D01*
X137151296Y-71001511D01*
X137253102Y-71303150D01*
X137359588Y-71596656D01*
X137420883Y-71755847D01*
X137495535Y-71936966D01*
X137584221Y-72138301D01*
X137682426Y-72350570D01*
X137785630Y-72564493D01*
X137889317Y-72770787D01*
X137988969Y-72960172D01*
X138080068Y-73123367D01*
X138116345Y-73184597D01*
X138375107Y-73581386D01*
X138646532Y-73939561D01*
X138930118Y-74258836D01*
X139225365Y-74538927D01*
X139531771Y-74779552D01*
X139848836Y-74980424D01*
X140176059Y-75141260D01*
X140512939Y-75261776D01*
X140858975Y-75341688D01*
X141213665Y-75380710D01*
X141576509Y-75378560D01*
X141915727Y-75340197D01*
X142242826Y-75266166D01*
X142552340Y-75153929D01*
X142843933Y-75003937D01*
X143117269Y-74816646D01*
X143372011Y-74592507D01*
X143607825Y-74331974D01*
X143824373Y-74035501D01*
X144021319Y-73703540D01*
X144198328Y-73336545D01*
X144355064Y-72934969D01*
X144491189Y-72499265D01*
X144606369Y-72029886D01*
X144688019Y-71601994D01*
X144716665Y-71427996D01*
X144741093Y-71270511D01*
X144761634Y-71124263D01*
X144778618Y-70983980D01*
X144792374Y-70844386D01*
X144803232Y-70700206D01*
X144811523Y-70546167D01*
X144817575Y-70376993D01*
X144821719Y-70187411D01*
X144824285Y-69972145D01*
X144825603Y-69725922D01*
X144826002Y-69443467D01*
X144826003Y-69395764D01*
X144825737Y-69117984D01*
X144824801Y-68877344D01*
X144822871Y-68668648D01*
X144819627Y-68486704D01*
X144814748Y-68326318D01*
X144807912Y-68182296D01*
X144798797Y-68049446D01*
X144787083Y-67922574D01*
X144772448Y-67796487D01*
X144754571Y-67665990D01*
X144733130Y-67525891D01*
X144707805Y-67370996D01*
X144696579Y-67304113D01*
X144594672Y-66788373D01*
X144468382Y-66303883D01*
X144318087Y-65851169D01*
X144144165Y-65430757D01*
X143946995Y-65043172D01*
X143726957Y-64688941D01*
X143484428Y-64368588D01*
X143219786Y-64082641D01*
X142933412Y-63831625D01*
X142625683Y-63616065D01*
X142296978Y-63436487D01*
X141947675Y-63293418D01*
X141767560Y-63236354D01*
X141579384Y-63185725D01*
X141405637Y-63147443D01*
X141235194Y-63120091D01*
X141056933Y-63102255D01*
X140859732Y-63092517D01*
X140632467Y-63089461D01*
X140613977Y-63089462D01*
X140398101Y-63092004D01*
X140213840Y-63100111D01*
X140050691Y-63115076D01*
X139898152Y-63138194D01*
X139745719Y-63170758D01*
X139582890Y-63214062D01*
X139568270Y-63218269D01*
X139223281Y-63339464D01*
X138899107Y-63497290D01*
X138595977Y-63691384D01*
X138314121Y-63921386D01*
X138053766Y-64186935D01*
X137815144Y-64487670D01*
X137598484Y-64823229D01*
X137404013Y-65193252D01*
X137231963Y-65597377D01*
X137082561Y-66035244D01*
X136956038Y-66506490D01*
X136852623Y-67010756D01*
X136772544Y-67547679D01*
X136761713Y-67638324D01*
X136744318Y-67809947D01*
X136729094Y-68001094D01*
X136716351Y-68203550D01*
X136706400Y-68409102D01*
X136699551Y-68609536D01*
X136696113Y-68796639D01*
X130353103Y-68796639D01*
X130349227Y-68627308D01*
X130343460Y-68478424D01*
X130338845Y-68401355D01*
X130291792Y-67912267D01*
X130222333Y-67432835D01*
X130131712Y-66968092D01*
X130021171Y-66523073D01*
X129891953Y-66102811D01*
X129745301Y-65712340D01*
X129591918Y-65375476D01*
X129380570Y-64993181D01*
X129147832Y-64647388D01*
X128893759Y-64338129D01*
X128618403Y-64065440D01*
X128321820Y-63829355D01*
X128004064Y-63629908D01*
X127665188Y-63467133D01*
X127305248Y-63341065D01*
X126924296Y-63251738D01*
X126522387Y-63199186D01*
X126130964Y-63183347D01*
X125730745Y-63201916D01*
X125350918Y-63257523D01*
X124991648Y-63350017D01*
X124653102Y-63479247D01*
X124335444Y-63645063D01*
X124038839Y-63847314D01*
X123763453Y-64085849D01*
X123509452Y-64360518D01*
X123277001Y-64671169D01*
X123066264Y-65017652D01*
X122877408Y-65399817D01*
X122710597Y-65817512D01*
X122565998Y-66270587D01*
X122508378Y-66485347D01*
X122442841Y-66768034D01*
X122384644Y-67067653D01*
X122334251Y-67378391D01*
X122292126Y-67694431D01*
X122258731Y-68009961D01*
X122234530Y-68319164D01*
X122219987Y-68616228D01*
X122215565Y-68895336D01*
X112429827Y-68895336D01*
X112479358Y-68634820D01*
X112581517Y-68074551D01*
X112683662Y-67491717D01*
X112787447Y-66877921D01*
X112822648Y-66665264D01*
X112897380Y-66219435D01*
X112968873Y-65809943D01*
X113038300Y-65431021D01*
X113106832Y-65076904D01*
X113175641Y-64741825D01*
X113245898Y-64420018D01*
X113318777Y-64105716D01*
X113395448Y-63793154D01*
X113448569Y-63585514D01*
X113716687Y-62626196D01*
X114014988Y-61696218D01*
X114343410Y-60795660D01*
X114701892Y-59924600D01*
X115090373Y-59083117D01*
X115508791Y-58271292D01*
X115957084Y-57489204D01*
X116435191Y-56736931D01*
X116943052Y-56014555D01*
X117480603Y-55322153D01*
X118047785Y-54659805D01*
X118644535Y-54027592D01*
X119270792Y-53425591D01*
X119926495Y-52853883D01*
X120611582Y-52312547D01*
X121325991Y-51801662D01*
X122069662Y-51321308D01*
X122842533Y-50871565D01*
X123585394Y-50481871D01*
X124408552Y-50094566D01*
X125257836Y-49739960D01*
X126132157Y-49418322D01*
X127030430Y-49129924D01*
X127951567Y-48875034D01*
X128894482Y-48653922D01*
X129858087Y-48466859D01*
X130841296Y-48314114D01*
X131843023Y-48195958D01*
X132862179Y-48112660D01*
X133205644Y-48092683D01*
X133791896Y-48068736D01*
X134391536Y-48057111D01*
X134995515Y-48057622D01*
G37*
X134995515Y-48057622D02*
X135594784Y-48070080D01*
X136180298Y-48094300D01*
X136743007Y-48130092D01*
X137269644Y-48176836D01*
X137712049Y-48231528D01*
X138186297Y-48307333D01*
X138688230Y-48403087D01*
X139213693Y-48517625D01*
X139758530Y-48649783D01*
X140318584Y-48798398D01*
X140889700Y-48962304D01*
X141467721Y-49140339D01*
X142048492Y-49331337D01*
X142627855Y-49534134D01*
X143201657Y-49747567D01*
X143765739Y-49970471D01*
X143962988Y-50051711D01*
X144658499Y-50352388D01*
X145358884Y-50676599D01*
X146051871Y-51018323D01*
X146725190Y-51371536D01*
X147270894Y-51675165D01*
X148171075Y-52214334D01*
X149057475Y-52793433D01*
X149929883Y-53412296D01*
X150788089Y-54070755D01*
X151631885Y-54768643D01*
X152461061Y-55505791D01*
X153275407Y-56282034D01*
X154074712Y-57097202D01*
X154134790Y-57160690D01*
X154847701Y-57942410D01*
X155530463Y-58744698D01*
X156181790Y-59565575D01*
X156800396Y-60403058D01*
X157384995Y-61255168D01*
X157934300Y-62119922D01*
X158447026Y-62995340D01*
X158921885Y-63879442D01*
X159357593Y-64770245D01*
X159752862Y-65665769D01*
X159914125Y-66062014D01*
X159976321Y-66219912D01*
X160033935Y-66368654D01*
X160088576Y-66512889D01*
X160141855Y-66657267D01*
X160195381Y-66806436D01*
X160250764Y-66965048D01*
X160309615Y-67137751D01*
X160373542Y-67329194D01*
X160444155Y-67544029D01*
X160523065Y-67786903D01*
X160611881Y-68062467D01*
X160676976Y-68265340D01*
X160802925Y-68659739D01*
X160916132Y-69017447D01*
X161017490Y-69341849D01*
X161107896Y-69636330D01*
X161188245Y-69904275D01*
X161259433Y-70149070D01*
X161322355Y-70374098D01*
X161377906Y-70582746D01*
X161426983Y-70778399D01*
X161470480Y-70964441D01*
X161509293Y-71144257D01*
X161544317Y-71321234D01*
X161576449Y-71498754D01*
X161606583Y-71680205D01*
X161635615Y-71868970D01*
X161642351Y-71914597D01*
X161670154Y-72101582D01*
X161697513Y-72279408D01*
X161725355Y-72453218D01*
X161754610Y-72628153D01*
X161786204Y-72809356D01*
X161821067Y-73001970D01*
X161860125Y-73211136D01*
X161904308Y-73441997D01*
X161954544Y-73699695D01*
X162011760Y-73989372D01*
X162065779Y-74260595D01*
X162105006Y-74457109D01*
X162140689Y-74636360D01*
X162173398Y-74801586D01*
X162203706Y-74956023D01*
X162232182Y-75102910D01*
X162259400Y-75245483D01*
X162285931Y-75386979D01*
X162312345Y-75530636D01*
X162339215Y-75679690D01*
X162367112Y-75837378D01*
X162396608Y-76006939D01*
X162428273Y-76191609D01*
X162462680Y-76394624D01*
X162500400Y-76619223D01*
X162542004Y-76868643D01*
X162588064Y-77146120D01*
X162639151Y-77454891D01*
X162695837Y-77798195D01*
X162758694Y-78179267D01*
X162774510Y-78275180D01*
X162881213Y-78920101D01*
X162982242Y-79525835D01*
X163078144Y-80095073D01*
X163169463Y-80630501D01*
X163256747Y-81134809D01*
X163340541Y-81610684D01*
X163421390Y-82060815D01*
X163499842Y-82487890D01*
X163576442Y-82894598D01*
X163651736Y-83283627D01*
X163726270Y-83657665D01*
X163800590Y-84019400D01*
X163875242Y-84371520D01*
X163950772Y-84716715D01*
X164027725Y-85057672D01*
X164106649Y-85397080D01*
X164188089Y-85737626D01*
X164272590Y-86082000D01*
X164360699Y-86432889D01*
X164452962Y-86792982D01*
X164549925Y-87164967D01*
X164652134Y-87551533D01*
X164678902Y-87652014D01*
X165040010Y-88969583D01*
X165417474Y-90277001D01*
X165810184Y-91571094D01*
X166217029Y-92848690D01*
X166636898Y-94106615D01*
X167068683Y-95341696D01*
X167511271Y-96550761D01*
X167963554Y-97730636D01*
X168424419Y-98878148D01*
X168892758Y-99990124D01*
X169367460Y-101063392D01*
X169387024Y-101106482D01*
X169489416Y-101329715D01*
X169600183Y-101567528D01*
X169716143Y-101813332D01*
X169834116Y-102060542D01*
X169950922Y-102302569D01*
X170063380Y-102532826D01*
X170168308Y-102744726D01*
X170262528Y-102931681D01*
X170342858Y-103087104D01*
X170348410Y-103097638D01*
X170415369Y-103227219D01*
X170478477Y-103355732D01*
X170540138Y-103488879D01*
X170602758Y-103632359D01*
X170668741Y-103791871D01*
X170740492Y-103973115D01*
X170820417Y-104181792D01*
X170910919Y-104423601D01*
X170932998Y-104483191D01*
X171087167Y-104916804D01*
X171232893Y-105362273D01*
X171371885Y-105825565D01*
X171505848Y-106312652D01*
X171636488Y-106829501D01*
X171765513Y-107382083D01*
X171779132Y-107442847D01*
X171919556Y-108097159D01*
X172049312Y-108753380D01*
X172168147Y-109408715D01*
X172275805Y-110060369D01*
X172372032Y-110705546D01*
X172456574Y-111341451D01*
X172529176Y-111965289D01*
X172589584Y-112574264D01*
X172637542Y-113165582D01*
X172672798Y-113736447D01*
X172695096Y-114284064D01*
X172704182Y-114805637D01*
X172699800Y-115298372D01*
X172681698Y-115759472D01*
X172649620Y-116186143D01*
X172607737Y-116544514D01*
X172549018Y-116902875D01*
X172478576Y-117221883D01*
X172395863Y-117503012D01*
X172300332Y-117747742D01*
X172191435Y-117957547D01*
X172068626Y-118133905D01*
X171983707Y-118228663D01*
X171873907Y-118331745D01*
X171776382Y-118403663D01*
X171680957Y-118449143D01*
X171577454Y-118472909D01*
X171455698Y-118479687D01*
X171443227Y-118479622D01*
X171295555Y-118468004D01*
X171152513Y-118433743D01*
X171004363Y-118373533D01*
X170841368Y-118284071D01*
X170809784Y-118264658D01*
X170601148Y-118119742D01*
X170377354Y-117935749D01*
X170138658Y-117713027D01*
X169885316Y-117451927D01*
X169617584Y-117152799D01*
X169335718Y-116815991D01*
X169039973Y-116441853D01*
X168730606Y-116030736D01*
X168407872Y-115582988D01*
X168072027Y-115098960D01*
X167723328Y-114579001D01*
X167362030Y-114023461D01*
X166988390Y-113432689D01*
X166602662Y-112807035D01*
X166205103Y-112146849D01*
X165795969Y-111452481D01*
X165687333Y-111265706D01*
X165575522Y-111071964D01*
X165450405Y-110853413D01*
X165315676Y-110616626D01*
X165175026Y-110368177D01*
X165032150Y-110114638D01*
X164890740Y-109862583D01*
X164754489Y-109618585D01*
X164627092Y-109389216D01*
X164512240Y-109181051D01*
X164413626Y-109000661D01*
X164383835Y-108945680D01*
X164325945Y-108839356D01*
X164273000Y-108743627D01*
X164229126Y-108665840D01*
X164198451Y-108613343D01*
X164187666Y-108596430D01*
X164166190Y-108568642D01*
X164163024Y-108577190D01*
X164169239Y-108607014D01*
X164180652Y-108663503D01*
X164197886Y-108756566D01*
X164220066Y-108880978D01*
X164246312Y-109031513D01*
X164275746Y-109202945D01*
X164307492Y-109390049D01*
X164340670Y-109587600D01*
X164374404Y-109790371D01*
X164407816Y-109993136D01*
X164440027Y-110190672D01*
X164470160Y-110377751D01*
X164497337Y-110549148D01*
X164519822Y-110694024D01*
X164643749Y-111529267D01*
X164754093Y-112327288D01*
X164851106Y-113090873D01*
X164935040Y-113822809D01*
X165006149Y-114525880D01*
X165064686Y-115202874D01*
X165110901Y-115856577D01*
X165145050Y-116489775D01*
X165167384Y-117105253D01*
X165178155Y-117705799D01*
X165179297Y-117964595D01*
X165178082Y-118313807D01*
X165174002Y-118627796D01*
X165166686Y-118913600D01*
X165155762Y-119178254D01*
X165140862Y-119428797D01*
X165121613Y-119672264D01*
X165097646Y-119915692D01*
X165068589Y-120166120D01*
X165059535Y-120238097D01*
X164989617Y-120701306D01*
X164903070Y-121126650D01*
X164800012Y-121514006D01*
X164680561Y-121863251D01*
X164544832Y-122174263D01*
X164392943Y-122446919D01*
X164225011Y-122681096D01*
X164041153Y-122876673D01*
X163841486Y-123033525D01*
X163626126Y-123151530D01*
X163395190Y-123230566D01*
X163148796Y-123270511D01*
X162887061Y-123271240D01*
X162610100Y-123232633D01*
X162318032Y-123154565D01*
X162288644Y-123144801D01*
X161956705Y-123014346D01*
X161613200Y-122843466D01*
X161258368Y-122632388D01*
X160892451Y-122381342D01*
X160515689Y-122090555D01*
X160128325Y-121760255D01*
X159730600Y-121390670D01*
X159322754Y-120982028D01*
X158905029Y-120534558D01*
X158477667Y-120048486D01*
X158040907Y-119524042D01*
X157594993Y-118961453D01*
X157140164Y-118360948D01*
X156940851Y-118089680D01*
X156490413Y-117458922D01*
X156029871Y-116790087D01*
X155560793Y-116085791D01*
X155084745Y-115348651D01*
X154603295Y-114581282D01*
X154118011Y-113786301D01*
X153630460Y-112966323D01*
X153142209Y-112123965D01*
X152654825Y-111261842D01*
X152169876Y-110382571D01*
X151688930Y-109488768D01*
X151213553Y-108583048D01*
X151019013Y-108205728D01*
X150936908Y-108045956D01*
X150860659Y-107898185D01*
X150792460Y-107766622D01*
X150734504Y-107655473D01*
X150688987Y-107568945D01*
X150658103Y-107511244D01*
X150644044Y-107486575D01*
X150643622Y-107486061D01*
X150638710Y-107495561D01*
X150643238Y-107534153D01*
X150643998Y-107538097D01*
X150649540Y-107578835D01*
X150657774Y-107656594D01*
X150668270Y-107766180D01*
X150680595Y-107902394D01*
X150694316Y-108060043D01*
X150709002Y-108233929D01*
X150724220Y-108418856D01*
X150739537Y-108609629D01*
X150754522Y-108801051D01*
X150768743Y-108987926D01*
X150781766Y-109165059D01*
X150793159Y-109327252D01*
X150794558Y-109347847D01*
X150853178Y-110335366D01*
X150895453Y-111317941D01*
X150921349Y-112290306D01*
X150930835Y-113247194D01*
X150923881Y-114183339D01*
X150900453Y-115093475D01*
X150860522Y-115972335D01*
X150836606Y-116364597D01*
X150774621Y-117164933D01*
X150696335Y-117939325D01*
X150602073Y-118685981D01*
X150492158Y-119403109D01*
X150366914Y-120088917D01*
X150226664Y-120741615D01*
X150071731Y-121359411D01*
X149902439Y-121940513D01*
X149744552Y-122412514D01*
X149532784Y-122964449D01*
X149305141Y-123477209D01*
X149061513Y-123950904D01*
X148801793Y-124385648D01*
X148525870Y-124781554D01*
X148233636Y-125138732D01*
X147924981Y-125457297D01*
X147599796Y-125737359D01*
X147257972Y-125979031D01*
X146899400Y-126182426D01*
X146523970Y-126347655D01*
X146131573Y-126474832D01*
X145722101Y-126564068D01*
X145704560Y-126566982D01*
X145332358Y-126609096D01*
X144937991Y-126617763D01*
X144524160Y-126593794D01*
X144093566Y-126538004D01*
X143648909Y-126451206D01*
X143192890Y-126334213D01*
X142728207Y-126187839D01*
X142257563Y-126012898D01*
X141783657Y-125810202D01*
X141309190Y-125580565D01*
X140836861Y-125324801D01*
X140369372Y-125043723D01*
X140128063Y-124887147D01*
X139562750Y-124488316D01*
X139002328Y-124047938D01*
X138447264Y-123566568D01*
X137898029Y-123044760D01*
X137355090Y-122483070D01*
X136818919Y-121882051D01*
X136289983Y-121242259D01*
X135768752Y-120564248D01*
X135255695Y-119848574D01*
X134751281Y-119095791D01*
X134255980Y-118306453D01*
X133770261Y-117481117D01*
X133582508Y-117147764D01*
X133124134Y-116297349D01*
X132674211Y-115409631D01*
X132234817Y-114489157D01*
X131808030Y-113540475D01*
X131395931Y-112568131D01*
X131000596Y-111576674D01*
X130824880Y-111115264D01*
X130755803Y-110928908D01*
X130679157Y-110718196D01*
X130597427Y-110490260D01*
X130513098Y-110252233D01*
X130428658Y-110011248D01*
X130346592Y-109774437D01*
X130269385Y-109548933D01*
X130199525Y-109341869D01*
X130139496Y-109160378D01*
X130092688Y-109014472D01*
X130057697Y-108905296D01*
X130026309Y-108811908D01*
X130000925Y-108741099D01*
X129983944Y-108699656D01*
X129978598Y-108691680D01*
X129970985Y-108711361D01*
X129959344Y-108765179D01*
X129945163Y-108845300D01*
X129929928Y-108943888D01*
X129927392Y-108961555D01*
X129908635Y-109088571D01*
X129883390Y-109251739D01*
X129852586Y-109445533D01*
X129817149Y-109664427D01*
X129778006Y-109902894D01*
X129736085Y-110155407D01*
X129692312Y-110416440D01*
X129647615Y-110680468D01*
X129602921Y-110941962D01*
X129559157Y-111195397D01*
X129517249Y-111435246D01*
X129478126Y-111655982D01*
X129442714Y-111852080D01*
X129440043Y-111866680D01*
X129214465Y-113060332D01*
X128980164Y-114225830D01*
X128737438Y-115362109D01*
X128486584Y-116468101D01*
X128227901Y-117542742D01*
X127961686Y-118584965D01*
X127688239Y-119593703D01*
X127407857Y-120567891D01*
X127120838Y-121506462D01*
X126827480Y-122408350D01*
X126528082Y-123272490D01*
X126222942Y-124097815D01*
X125912357Y-124883258D01*
X125596627Y-125627754D01*
X125583852Y-125656764D01*
X125504571Y-125832435D01*
X125410848Y-126033278D01*
X125306210Y-126252229D01*
X125194184Y-126482226D01*
X125078297Y-126716204D01*
X124962077Y-126947102D01*
X124849051Y-127167856D01*
X124742746Y-127371403D01*
X124646690Y-127550680D01*
X124564409Y-127698624D01*
X124562360Y-127702208D01*
X124273009Y-128190251D01*
X123985429Y-128639382D01*
X123697260Y-129052820D01*
X123406141Y-129433785D01*
X123109715Y-129785494D01*
X122805620Y-130111168D01*
X122771025Y-130146119D01*
X122511726Y-130396934D01*
X122265022Y-130614787D01*
X122024460Y-130804523D01*
X121783588Y-130970985D01*
X121535954Y-131119018D01*
X121334744Y-131224416D01*
X120967529Y-131384461D01*
X120597773Y-131502452D01*
X120225814Y-131578330D01*
X119851991Y-131612035D01*
X119476641Y-131603508D01*
X119283794Y-131582751D01*
X118931692Y-131516725D01*
X118572966Y-131413410D01*
X118204810Y-131271892D01*
X117914998Y-131137240D01*
X117506267Y-130912232D01*
X117116351Y-130653130D01*
X116744270Y-130358974D01*
X116389044Y-130028802D01*
X116049691Y-129661652D01*
X115725231Y-129256564D01*
X115414683Y-128812577D01*
X115209588Y-128485678D01*
X114926463Y-127981560D01*
X114659835Y-127438895D01*
X114409821Y-126858173D01*
X114176538Y-126239882D01*
X113960103Y-125584514D01*
X113760635Y-124892556D01*
X113578252Y-124164500D01*
X113413069Y-123400834D01*
X113265206Y-122602048D01*
X113134779Y-121768631D01*
X113021907Y-120901073D01*
X112926706Y-119999864D01*
X112849295Y-119065494D01*
X112812227Y-118502430D01*
X112798795Y-118272168D01*
X112787153Y-118058940D01*
X112777131Y-117856972D01*
X112768556Y-117660490D01*
X112761258Y-117463720D01*
X112755066Y-117260887D01*
X112749809Y-117046218D01*
X112745315Y-116813937D01*
X112741413Y-116558271D01*
X112737933Y-116273445D01*
X112734703Y-115953686D01*
X112733815Y-115856597D01*
X112730540Y-115100049D01*
X112734846Y-114373710D01*
X112747060Y-113666079D01*
X112767509Y-112965657D01*
X112796522Y-112260944D01*
X112834425Y-111540441D01*
X112875512Y-110882430D01*
X112888073Y-110698467D01*
X112902107Y-110500629D01*
X112917145Y-110294914D01*
X112932718Y-110087325D01*
X112948356Y-109883860D01*
X112963592Y-109690520D01*
X112977956Y-109513305D01*
X112990980Y-109358215D01*
X113002194Y-109231250D01*
X113011129Y-109138410D01*
X113013640Y-109115014D01*
X113011261Y-109099942D01*
X112996522Y-109124290D01*
X112969820Y-109187110D01*
X112931547Y-109287453D01*
X112882101Y-109424374D01*
X112868020Y-109464264D01*
X112408680Y-110716146D01*
X111908074Y-111976473D01*
X111366355Y-113244933D01*
X110783678Y-114521215D01*
X110160194Y-115805011D01*
X109496056Y-117096008D01*
X108791419Y-118393898D01*
X108046433Y-119698369D01*
X107261254Y-121009111D01*
X106852453Y-121668628D01*
X106626243Y-122026740D01*
X106394579Y-122388150D01*
X106159484Y-122749935D01*
X105922978Y-123109172D01*
X105687083Y-123462940D01*
X105453819Y-123808315D01*
X105225209Y-124142376D01*
X105003272Y-124462199D01*
X104790031Y-124764863D01*
X104587506Y-125047444D01*
X104397718Y-125307022D01*
X104222689Y-125540672D01*
X104064439Y-125745472D01*
X103924991Y-125918501D01*
X103859699Y-125995974D01*
X103462718Y-126444775D01*
X103063739Y-126869891D01*
X102664821Y-127269572D01*
X102268026Y-127642070D01*
X101875414Y-127985636D01*
X101489048Y-128298522D01*
X101110987Y-128578978D01*
X100743293Y-128825258D01*
X100388026Y-129035610D01*
X100106012Y-129180740D01*
X99772542Y-129325310D01*
X99457444Y-129431939D01*
X99160288Y-129500617D01*
X98880645Y-129531334D01*
X98618088Y-129524079D01*
X98372187Y-129478841D01*
X98142512Y-129395610D01*
X97928636Y-129274375D01*
X97737716Y-129122167D01*
X97560602Y-128934587D01*
X97398596Y-128712352D01*
X97251515Y-128454864D01*
X97119173Y-128161526D01*
X97001385Y-127831743D01*
X96897967Y-127464918D01*
X96808735Y-127060453D01*
X96733502Y-126617752D01*
X96672086Y-126136218D01*
X96624300Y-125615256D01*
X96615787Y-125498014D01*
X96608572Y-125364984D01*
X96602610Y-125196058D01*
X96597898Y-124997654D01*
X96594438Y-124776189D01*
X96592229Y-124538084D01*
X96591270Y-124289754D01*
X96591562Y-124037620D01*
X96593103Y-123788099D01*
X96595894Y-123547609D01*
X96599935Y-123322569D01*
X96605226Y-123119397D01*
X96611765Y-122944511D01*
X96615891Y-122862764D01*
X96689326Y-121769314D01*
X96786066Y-120674896D01*
X96906940Y-119572186D01*
X97052775Y-118453858D01*
X97224400Y-117312587D01*
X97287057Y-116928360D01*
X97314643Y-116761048D01*
X97339551Y-116607525D01*
X97361023Y-116472650D01*
X97378302Y-116361283D01*
X97390632Y-116278286D01*
X97397254Y-116228519D01*
X97398018Y-116215921D01*
X97378847Y-116224039D01*
X97332851Y-116250983D01*
X97268246Y-116291826D01*
X97232894Y-116315014D01*
X96969302Y-116470299D01*
X96704173Y-116588287D01*
X96440311Y-116668291D01*
X96180523Y-116709624D01*
X95927612Y-116711598D01*
X95728433Y-116683601D01*
X95515413Y-116618229D01*
X95307487Y-116516264D01*
X95111938Y-116383392D01*
X94936051Y-116225298D01*
X94787111Y-116047665D01*
X94675009Y-115861527D01*
X94621905Y-115748703D01*
X94581691Y-115649294D01*
X94552650Y-115554227D01*
X94533067Y-115454428D01*
X94521225Y-115340822D01*
X94515408Y-115204334D01*
X94513899Y-115035891D01*
X94513932Y-115009930D01*
X94516174Y-114829621D01*
X94523334Y-114677225D01*
X94537329Y-114541115D01*
X94560074Y-114409668D01*
X94593486Y-114271258D01*
X94639480Y-114114260D01*
X94684881Y-113972764D01*
X94718909Y-113872156D01*
X94753938Y-113775853D01*
X94792012Y-113679682D01*
X94835178Y-113579470D01*
X94885480Y-113471044D01*
X94944964Y-113350231D01*
X95015675Y-113212859D01*
X95099657Y-113054754D01*
X95198957Y-112871745D01*
X95315619Y-112659658D01*
X95426659Y-112459347D01*
X95840456Y-111708421D01*
X96266883Y-110922524D01*
X96703578Y-110106278D01*
X97148182Y-109264301D01*
X97598333Y-108401213D01*
X98051671Y-107521636D01*
X98505836Y-106630189D01*
X98958466Y-105731492D01*
X99407201Y-104830165D01*
X99849680Y-103930829D01*
X100283543Y-103038102D01*
X100706428Y-102156606D01*
X100910020Y-101727847D01*
X101767521Y-99893588D01*
X102597163Y-98074290D01*
X103398676Y-96270688D01*
X104171791Y-94483521D01*
X104916238Y-92713523D01*
X105631750Y-90961433D01*
X105699095Y-90791335D01*
X126804007Y-90791335D01*
X126809033Y-91222631D01*
X126824779Y-91557625D01*
X126877974Y-92151297D01*
X126958454Y-92713885D01*
X127066815Y-93247165D01*
X127203655Y-93752913D01*
X127369569Y-94232904D01*
X127565154Y-94688916D01*
X127791005Y-95122724D01*
X128047720Y-95536104D01*
X128260208Y-95832930D01*
X128351037Y-95944915D01*
X128467315Y-96076459D01*
X128601764Y-96220286D01*
X128747109Y-96369120D01*
X128896072Y-96515685D01*
X129041377Y-96652704D01*
X129175748Y-96772900D01*
X129291907Y-96868998D01*
X129310977Y-96883673D01*
X129748140Y-97189692D01*
X130204782Y-97459232D01*
X130682060Y-97692798D01*
X131181130Y-97890900D01*
X131703149Y-98054044D01*
X132249276Y-98182739D01*
X132290744Y-98190920D01*
X132721639Y-98265276D01*
X133131220Y-98316668D01*
X133516624Y-98344952D01*
X133874990Y-98349985D01*
X134203457Y-98331624D01*
X134448489Y-98299010D01*
X134918210Y-98201860D01*
X135399882Y-98072588D01*
X135882611Y-97914713D01*
X136355503Y-97731754D01*
X136746425Y-97556834D01*
X137257988Y-97290751D01*
X137737635Y-96997270D01*
X138184963Y-96676917D01*
X138599568Y-96330222D01*
X138981047Y-95957713D01*
X139328998Y-95559917D01*
X139643016Y-95137362D01*
X139922699Y-94690578D01*
X140167643Y-94220092D01*
X140377446Y-93726432D01*
X140551703Y-93210127D01*
X140690013Y-92671705D01*
X140763010Y-92295066D01*
X140802286Y-92046784D01*
X140832902Y-91812890D01*
X140855680Y-91582763D01*
X140871441Y-91345784D01*
X140881007Y-91091331D01*
X140885199Y-90808786D01*
X140885540Y-90710597D01*
X140879768Y-90277824D01*
X140860794Y-89875854D01*
X140827694Y-89494976D01*
X140779545Y-89125481D01*
X140715426Y-88757657D01*
X140686427Y-88615097D01*
X140551192Y-88065460D01*
X140383206Y-87542290D01*
X140182632Y-87045811D01*
X139949635Y-86576244D01*
X139684376Y-86133811D01*
X139387020Y-85718734D01*
X139057731Y-85331236D01*
X138696671Y-84971539D01*
X138304005Y-84639865D01*
X137879896Y-84336436D01*
X137424507Y-84061475D01*
X137276548Y-83981810D01*
X136793737Y-83751547D01*
X136283265Y-83552056D01*
X135744651Y-83383192D01*
X135177417Y-83244808D01*
X134581084Y-83136761D01*
X134401560Y-83110935D01*
X134238126Y-83092945D01*
X134049080Y-83079081D01*
X133844248Y-83069492D01*
X133633454Y-83064324D01*
X133426524Y-83063726D01*
X133233285Y-83067846D01*
X133063560Y-83076833D01*
X132941060Y-83088936D01*
X132378525Y-83183574D01*
X131821715Y-83319103D01*
X131268894Y-83495805D01*
X131123869Y-83552094D01*
X130952644Y-83625693D01*
X130765095Y-83711767D01*
X130571102Y-83805481D01*
X130380541Y-83902000D01*
X130203293Y-83996488D01*
X130049233Y-84084112D01*
X129977727Y-84127777D01*
X129547588Y-84423601D01*
X129148078Y-84748536D01*
X128779359Y-85102300D01*
X128441595Y-85484610D01*
X128134949Y-85895185D01*
X127859583Y-86333742D01*
X127615661Y-86799999D01*
X127403346Y-87293674D01*
X127222800Y-87814484D01*
X127074187Y-88362147D01*
X126957670Y-88936382D01*
X126878314Y-89493514D01*
X126839050Y-89911268D01*
X126814147Y-90349045D01*
X126804007Y-90791335D01*
X105699095Y-90791335D01*
X106318056Y-89227987D01*
X106974887Y-87513921D01*
X107601974Y-85819973D01*
X108199049Y-84146879D01*
X108765841Y-82495377D01*
X109302082Y-80866202D01*
X109807502Y-79260092D01*
X110281833Y-77677783D01*
X110724805Y-76120013D01*
X111136148Y-74587518D01*
X111515595Y-73081034D01*
X111773495Y-71992941D01*
X111910470Y-71391675D01*
X112037506Y-70818239D01*
X112156260Y-70264235D01*
X112268383Y-69721263D01*
X112375531Y-69180924D01*
X112429827Y-68895336D01*
X122215565Y-68895336D01*
X122221728Y-69150676D01*
X122238938Y-69376431D01*
X122264181Y-69549116D01*
X122360647Y-69999907D01*
X122479274Y-70462681D01*
X122617262Y-70929410D01*
X122771813Y-71392067D01*
X122940128Y-71842623D01*
X123119409Y-72273052D01*
X123306856Y-72675325D01*
X123451193Y-72953865D01*
X123702022Y-73383623D01*
X123965174Y-73774076D01*
X124240410Y-74125020D01*
X124527492Y-74436250D01*
X124826179Y-74707562D01*
X125136232Y-74938751D01*
X125457413Y-75129613D01*
X125789482Y-75279943D01*
X126132199Y-75389537D01*
X126358227Y-75438419D01*
X126571167Y-75465859D01*
X126807415Y-75478844D01*
X127050483Y-75477349D01*
X127283881Y-75461347D01*
X127440960Y-75440103D01*
X127772952Y-75362766D01*
X128086155Y-75247532D01*
X128380440Y-75094505D01*
X128655681Y-74903786D01*
X128911749Y-74675477D01*
X129148516Y-74409682D01*
X129365856Y-74106501D01*
X129563639Y-73766038D01*
X129584368Y-73725979D01*
X129755682Y-73354356D01*
X129906783Y-72948608D01*
X130037863Y-72508007D01*
X130149118Y-72031829D01*
X130240740Y-71519347D01*
X130307879Y-71015014D01*
X130317554Y-70905737D01*
X130326334Y-70760138D01*
X130334148Y-70584222D01*
X130340923Y-70383992D01*
X130346590Y-70165452D01*
X130351076Y-69934606D01*
X130354311Y-69697457D01*
X130356223Y-69460009D01*
X130356742Y-69228267D01*
X130355797Y-69008233D01*
X130353315Y-68805913D01*
X130353103Y-68796639D01*
X136696113Y-68796639D01*
X136696399Y-68962197D01*
X136700717Y-69097997D01*
X136704501Y-69152347D01*
X136728608Y-69347572D01*
X136768631Y-69575500D01*
X136822964Y-69830299D01*
X136890003Y-70106133D01*
X136968141Y-70397169D01*
X137055774Y-70697573D01*
X137151296Y-71001511D01*
X137253102Y-71303150D01*
X137359588Y-71596656D01*
X137420883Y-71755847D01*
X137495535Y-71936966D01*
X137584221Y-72138301D01*
X137682426Y-72350570D01*
X137785630Y-72564493D01*
X137889317Y-72770787D01*
X137988969Y-72960172D01*
X138080068Y-73123367D01*
X138116345Y-73184597D01*
X138375107Y-73581386D01*
X138646532Y-73939561D01*
X138930118Y-74258836D01*
X139225365Y-74538927D01*
X139531771Y-74779552D01*
X139848836Y-74980424D01*
X140176059Y-75141260D01*
X140512939Y-75261776D01*
X140858975Y-75341688D01*
X141213665Y-75380710D01*
X141576509Y-75378560D01*
X141915727Y-75340197D01*
X142242826Y-75266166D01*
X142552340Y-75153929D01*
X142843933Y-75003937D01*
X143117269Y-74816646D01*
X143372011Y-74592507D01*
X143607825Y-74331974D01*
X143824373Y-74035501D01*
X144021319Y-73703540D01*
X144198328Y-73336545D01*
X144355064Y-72934969D01*
X144491189Y-72499265D01*
X144606369Y-72029886D01*
X144688019Y-71601994D01*
X144716665Y-71427996D01*
X144741093Y-71270511D01*
X144761634Y-71124263D01*
X144778618Y-70983980D01*
X144792374Y-70844386D01*
X144803232Y-70700206D01*
X144811523Y-70546167D01*
X144817575Y-70376993D01*
X144821719Y-70187411D01*
X144824285Y-69972145D01*
X144825603Y-69725922D01*
X144826002Y-69443467D01*
X144826003Y-69395764D01*
X144825737Y-69117984D01*
X144824801Y-68877344D01*
X144822871Y-68668648D01*
X144819627Y-68486704D01*
X144814748Y-68326318D01*
X144807912Y-68182296D01*
X144798797Y-68049446D01*
X144787083Y-67922574D01*
X144772448Y-67796487D01*
X144754571Y-67665990D01*
X144733130Y-67525891D01*
X144707805Y-67370996D01*
X144696579Y-67304113D01*
X144594672Y-66788373D01*
X144468382Y-66303883D01*
X144318087Y-65851169D01*
X144144165Y-65430757D01*
X143946995Y-65043172D01*
X143726957Y-64688941D01*
X143484428Y-64368588D01*
X143219786Y-64082641D01*
X142933412Y-63831625D01*
X142625683Y-63616065D01*
X142296978Y-63436487D01*
X141947675Y-63293418D01*
X141767560Y-63236354D01*
X141579384Y-63185725D01*
X141405637Y-63147443D01*
X141235194Y-63120091D01*
X141056933Y-63102255D01*
X140859732Y-63092517D01*
X140632467Y-63089461D01*
X140613977Y-63089462D01*
X140398101Y-63092004D01*
X140213840Y-63100111D01*
X140050691Y-63115076D01*
X139898152Y-63138194D01*
X139745719Y-63170758D01*
X139582890Y-63214062D01*
X139568270Y-63218269D01*
X139223281Y-63339464D01*
X138899107Y-63497290D01*
X138595977Y-63691384D01*
X138314121Y-63921386D01*
X138053766Y-64186935D01*
X137815144Y-64487670D01*
X137598484Y-64823229D01*
X137404013Y-65193252D01*
X137231963Y-65597377D01*
X137082561Y-66035244D01*
X136956038Y-66506490D01*
X136852623Y-67010756D01*
X136772544Y-67547679D01*
X136761713Y-67638324D01*
X136744318Y-67809947D01*
X136729094Y-68001094D01*
X136716351Y-68203550D01*
X136706400Y-68409102D01*
X136699551Y-68609536D01*
X136696113Y-68796639D01*
X130353103Y-68796639D01*
X130349227Y-68627308D01*
X130343460Y-68478424D01*
X130338845Y-68401355D01*
X130291792Y-67912267D01*
X130222333Y-67432835D01*
X130131712Y-66968092D01*
X130021171Y-66523073D01*
X129891953Y-66102811D01*
X129745301Y-65712340D01*
X129591918Y-65375476D01*
X129380570Y-64993181D01*
X129147832Y-64647388D01*
X128893759Y-64338129D01*
X128618403Y-64065440D01*
X128321820Y-63829355D01*
X128004064Y-63629908D01*
X127665188Y-63467133D01*
X127305248Y-63341065D01*
X126924296Y-63251738D01*
X126522387Y-63199186D01*
X126130964Y-63183347D01*
X125730745Y-63201916D01*
X125350918Y-63257523D01*
X124991648Y-63350017D01*
X124653102Y-63479247D01*
X124335444Y-63645063D01*
X124038839Y-63847314D01*
X123763453Y-64085849D01*
X123509452Y-64360518D01*
X123277001Y-64671169D01*
X123066264Y-65017652D01*
X122877408Y-65399817D01*
X122710597Y-65817512D01*
X122565998Y-66270587D01*
X122508378Y-66485347D01*
X122442841Y-66768034D01*
X122384644Y-67067653D01*
X122334251Y-67378391D01*
X122292126Y-67694431D01*
X122258731Y-68009961D01*
X122234530Y-68319164D01*
X122219987Y-68616228D01*
X122215565Y-68895336D01*
X112429827Y-68895336D01*
X112479358Y-68634820D01*
X112581517Y-68074551D01*
X112683662Y-67491717D01*
X112787447Y-66877921D01*
X112822648Y-66665264D01*
X112897380Y-66219435D01*
X112968873Y-65809943D01*
X113038300Y-65431021D01*
X113106832Y-65076904D01*
X113175641Y-64741825D01*
X113245898Y-64420018D01*
X113318777Y-64105716D01*
X113395448Y-63793154D01*
X113448569Y-63585514D01*
X113716687Y-62626196D01*
X114014988Y-61696218D01*
X114343410Y-60795660D01*
X114701892Y-59924600D01*
X115090373Y-59083117D01*
X115508791Y-58271292D01*
X115957084Y-57489204D01*
X116435191Y-56736931D01*
X116943052Y-56014555D01*
X117480603Y-55322153D01*
X118047785Y-54659805D01*
X118644535Y-54027592D01*
X119270792Y-53425591D01*
X119926495Y-52853883D01*
X120611582Y-52312547D01*
X121325991Y-51801662D01*
X122069662Y-51321308D01*
X122842533Y-50871565D01*
X123585394Y-50481871D01*
X124408552Y-50094566D01*
X125257836Y-49739960D01*
X126132157Y-49418322D01*
X127030430Y-49129924D01*
X127951567Y-48875034D01*
X128894482Y-48653922D01*
X129858087Y-48466859D01*
X130841296Y-48314114D01*
X131843023Y-48195958D01*
X132862179Y-48112660D01*
X133205644Y-48092683D01*
X133791896Y-48068736D01*
X134391536Y-48057111D01*
X134995515Y-48057622D01*
%TD*%
%TO.P,D1,2*%
%TO.N,Net-(D1-Pad2)*%
%TA.AperFunction,SMDPad,CuDef*%
G36*
G01*
X140781619Y-69596420D02*
X141681621Y-69596420D01*
G75*
G02*
X141931620Y-69846419I0J-249999D01*
G01*
X141931620Y-70496421D01*
G75*
G02*
X141681621Y-70746420I-249999J0D01*
G01*
X140781619Y-70746420D01*
G75*
G02*
X140531620Y-70496421I0J249999D01*
G01*
X140531620Y-69846419D01*
G75*
G02*
X140781619Y-69596420I249999J0D01*
G01*
G37*
%TD.AperFunction*%
%TO.P,D1,1*%
%TO.N,Net-(D1-Pad1)*%
%TA.AperFunction,SMDPad,CuDef*%
G36*
G01*
X140781619Y-67546420D02*
X141681621Y-67546420D01*
G75*
G02*
X141931620Y-67796419I0J-249999D01*
G01*
X141931620Y-68446421D01*
G75*
G02*
X141681621Y-68696420I-249999J0D01*
G01*
X140781619Y-68696420D01*
G75*
G02*
X140531620Y-68446421I0J249999D01*
G01*
X140531620Y-67796419D01*
G75*
G02*
X140781619Y-67546420I249999J0D01*
G01*
G37*
%TD.AperFunction*%
%TD*%
%TO.P,D2,1*%
%TO.N,Net-(D1-Pad1)*%
%TA.AperFunction,SMDPad,CuDef*%
G36*
G01*
X125968339Y-67564200D02*
X126868341Y-67564200D01*
G75*
G02*
X127118340Y-67814199I0J-249999D01*
G01*
X127118340Y-68464201D01*
G75*
G02*
X126868341Y-68714200I-249999J0D01*
G01*
X125968339Y-68714200D01*
G75*
G02*
X125718340Y-68464201I0J249999D01*
G01*
X125718340Y-67814199D01*
G75*
G02*
X125968339Y-67564200I249999J0D01*
G01*
G37*
%TD.AperFunction*%
%TO.P,D2,2*%
%TO.N,Net-(D2-Pad2)*%
%TA.AperFunction,SMDPad,CuDef*%
G36*
G01*
X125968339Y-69614200D02*
X126868341Y-69614200D01*
G75*
G02*
X127118340Y-69864199I0J-249999D01*
G01*
X127118340Y-70514201D01*
G75*
G02*
X126868341Y-70764200I-249999J0D01*
G01*
X125968339Y-70764200D01*
G75*
G02*
X125718340Y-70514201I0J249999D01*
G01*
X125718340Y-69864199D01*
G75*
G02*
X125968339Y-69614200I249999J0D01*
G01*
G37*
%TD.AperFunction*%
%TD*%
D11*
%TO.N,Net-(D1-Pad1)*%
X126415800Y-68130420D03*
X141231620Y-68121420D03*
%TO.N,Net-(D1-Pad2)*%
X141231620Y-70171420D03*
%TO.N,Net-(D2-Pad2)*%
X126418340Y-70189200D03*
%TD*%
D12*
%TO.N,Net-(D1-Pad1)*%
X126418340Y-68139200D02*
X126418340Y-68132960D01*
X126418340Y-68132960D02*
X126415800Y-68130420D01*
%TD*%
M02*
